<svg width="725" height="526" viewBox="0 0 725 526" fill="none" xmlns="http://www.w3.org/2000/svg">
<g opacity="0.7">
<path fill-rule="evenodd" clip-rule="evenodd" d="M62.3245 93.231L62.7763 93.1578C65.248 92.7573 67.5424 93.0505 69.5393 94.1857C71.5219 95.3127 73.0231 97.1625 74.1221 99.536C74.1361 99.5661 74.1493 99.5962 74.1619 99.6262C74.201 98.2975 74.5557 97.0364 75.2629 95.8807C76.2976 94.1899 77.9783 92.9016 80.0868 91.9253L80.351 91.803L80.6402 91.7705C83.7282 91.4235 86.5613 92.1777 89.0455 94.0188C91.4849 95.8267 93.4993 98.6141 95.1635 102.208L95.2381 102.369L96.7353 108.588C104.886 124.586 111.747 136.118 117.322 143.27C120.129 146.871 122.526 149.249 124.51 150.549C126.183 151.644 127.316 151.827 128.105 151.639C132.451 144.942 134.723 134.692 134.66 120.621L134.656 119.617L135.267 119.238C135.31 119.086 135.359 118.83 135.39 118.436C135.463 117.491 135.41 116.075 135.191 114.133C134.762 110.308 133.731 104.758 132.081 97.447L115.722 65.1884L120.728 57.8193L121.179 57.6106C123.573 56.502 126.103 57.3281 128.416 59.0078C130.744 60.6988 133.256 63.5193 135.957 67.3225C141.363 74.9333 147.855 86.9545 155.432 103.305L175.634 131.798L176.72 141.468L169.554 144.787L169.257 144.818C165.372 145.22 161.716 143.249 158.34 139.664C155.607 136.762 152.906 132.653 150.218 127.4C149.282 136.899 147.842 144.735 145.875 150.874C143.652 157.81 140.673 162.845 136.721 165.523L136.6 165.605L136.468 165.666C127.009 170.046 117.039 166.067 106.921 155.421C103.236 151.544 99.4633 146.721 95.6014 140.959C87.0838 148.467 78.6941 156.951 70.4335 166.414C74.3857 173.613 77.4952 178.953 79.7703 182.46C80.9716 184.311 81.9012 185.59 82.5723 186.354C82.6711 186.467 82.7584 186.561 82.8346 186.64L84.5314 185.854L84.6143 188.568C84.6801 190.724 84.5512 192.592 84.1761 194.118C83.805 195.627 83.1437 196.996 81.987 197.886L81.8285 198.008L79.3582 199.152C77.7189 199.911 75.9623 199.333 74.4937 198.464C72.9618 197.559 71.2559 196.06 69.3892 194.078C65.8327 190.301 61.4039 184.456 56.1138 176.598C53.7893 177.972 52.171 179.077 51.1924 179.921C50.8618 180.207 50.643 180.43 50.5042 180.592L51.3147 182.342L48.8278 182.609C44.7574 183.047 41.1142 182.095 38.0221 179.702L37.6763 179.434L36.4327 176.748C35.8891 175.574 36.0505 174.343 36.5015 173.261C36.9443 172.2 37.724 171.125 38.7146 170.045C40.6283 167.959 43.6381 165.528 47.6571 162.758L47.8184 162.319L47.674 162.007C42.266 154.556 37.876 148.905 34.4948 145.03C32.7916 143.078 31.3723 141.609 30.2288 140.595C29.6834 140.112 29.2414 139.769 28.8948 139.533L24.6906 143.986L24.0376 144.059C21.337 144.363 19.0826 144.414 17.352 144.145C15.7256 143.892 13.9771 143.259 13.2237 141.632L11.634 138.199C11.2664 137.405 11.4958 136.651 11.6285 136.306C11.7871 135.893 12.0323 135.492 12.2884 135.129C12.8091 134.391 13.5989 133.499 14.6028 132.474C16.6262 130.409 19.7333 127.593 23.8938 124.041C32.2267 116.927 44.9216 106.747 61.963 93.5118L62.3245 93.231ZM28.4996 137.338C31.3857 138.102 38.2952 146.021 49.2282 161.095L49.7581 162.239L49.1436 163.914C40.6949 169.679 37.0005 173.706 38.0603 175.994L39.1201 178.283C41.3555 180.014 43.9181 180.892 46.808 180.918C47.4035 180.924 48.0128 180.893 48.6361 180.826C48.5772 180.699 48.5619 180.556 48.5902 180.398C48.7879 179.293 51.1202 177.437 55.5871 174.828L56.7315 174.298C68.0584 191.289 75.3494 199.032 78.6046 197.524L80.8934 196.464C82.0856 195.547 82.7294 193.541 82.8247 190.445C82.8422 189.874 82.8411 189.267 82.8215 188.623C82.7425 188.659 82.6482 188.662 82.5388 188.631C80.9573 188.186 76.1977 180.702 68.2602 166.18C76.8918 156.214 85.6722 147.304 94.6016 139.45C95.056 139.05 95.5108 138.653 95.9659 138.259C96.2989 138.769 96.6312 139.272 96.9627 139.769C111.323 161.261 124.241 169.351 135.715 164.038C142.516 159.43 146.845 146.187 148.7 124.309C148.73 123.955 148.76 123.599 148.788 123.24L149.933 122.71C150.033 122.927 150.134 123.143 150.234 123.356C150.332 123.565 150.43 123.771 150.528 123.977C156.889 137.304 163.07 143.656 169.072 143.034L174.794 140.384L173.903 132.458L153.873 104.208C138.683 71.4021 128.036 56.412 121.932 59.2382L117.8 65.3209L133.782 96.8344C137.147 111.706 138.038 119.632 136.454 120.613C136.519 135.16 134.124 145.997 129.271 153.124C122.863 156.092 111.452 141.455 95.0411 109.214L93.5359 102.962C90.3565 96.0955 86.1247 92.9591 80.8405 93.5529C77.0258 95.3192 75.4435 97.9049 76.0937 101.31C80.5628 110.962 84.915 119.527 89.1501 127.006C89.43 127.5 89.7094 127.99 89.9883 128.474C90.01 128.512 90.0317 128.55 90.0534 128.588L60.7569 152.977C59.231 153.684 52.7029 145.588 41.1726 128.691L42.4016 125.342C63.5469 110.98 73.5779 102.629 72.4945 100.29C70.5162 96.0172 67.3724 94.2301 63.0632 94.9283C28.9907 121.391 12.3902 135.564 13.2616 137.445L14.8513 140.879C15.5578 142.405 18.5532 142.871 23.8374 142.277L28.4996 137.338ZM43.8868 126.501L43.1747 128.442C48.6836 136.493 52.9925 142.44 56.1126 146.309C57.729 148.314 58.9812 149.704 59.8871 150.535C60.0788 150.711 60.2423 150.85 60.3789 150.958L87.7493 128.172C83.4285 120.564 79.0014 111.858 74.4661 102.064L74.3733 101.863L74.3319 101.646C74.3152 101.559 74.2996 101.471 74.2853 101.384C74.2194 101.677 74.1217 101.944 74.0208 102.173C73.7109 102.875 73.2048 103.598 72.5986 104.323C71.3754 105.784 69.4636 107.578 66.9314 109.686C61.9234 113.855 54.2303 119.465 43.8868 126.501ZM60.8768 151.285C60.8776 151.287 60.8637 151.282 60.8332 151.267C60.8609 151.276 60.876 151.284 60.8768 151.285ZM83.2013 186.974C83.2015 186.974 83.2012 186.974 83.2013 186.974C83.2606 187.014 83.2567 187.002 83.2013 186.974ZM245.129 80.5405L245.197 80.733C248.459 90.0052 249.761 97.7657 248.87 103.897C247.961 110.157 244.759 114.689 239.28 117.226C234.473 119.452 228.146 119.834 220.495 118.643C213.639 117.577 205.567 115.223 196.3 111.617L218.818 140.46L217.144 148.323L211.752 150.819C210.595 151.355 209.372 151.011 208.482 150.612C207.518 150.181 206.449 149.463 205.299 148.543C202.985 146.692 200.033 143.77 196.464 139.834C189.315 131.95 179.487 119.772 166.996 103.33L157.608 92.1815L157.507 91.9636C155.84 88.3643 155.144 85.0448 155.813 82.1535C156.507 79.1564 158.577 76.9836 161.623 75.5733C162.354 75.2345 163.148 75.226 163.822 75.3088C164.521 75.3948 165.288 75.6049 166.097 75.8958C167.716 76.4785 169.736 77.4722 172.129 78.8324C176.909 81.5495 183.413 85.8672 191.617 91.7565C201.785 97.1331 210.204 100.716 216.904 102.56C223.699 104.431 228.391 104.417 231.329 103.057C233.213 102.184 234.375 100.773 234.891 98.6746C235.425 96.5051 235.279 93.5232 234.246 89.6129L230.602 81.7436C222.936 65.187 213.136 54.3177 201.31 48.8287L196.817 52.1116L191.595 54.5296L188.155 47.0988L188.125 47.0143C187.27 44.5509 186.792 42.403 186.844 40.6663C186.897 38.8881 187.549 37.1625 189.32 36.3426L191.609 35.2828C198.557 32.0654 206.57 35.0393 215.212 42.5451C223.935 50.1207 233.869 62.7728 245.02 80.3682L245.129 80.5405ZM201.095 46.7647C213.867 52.3391 224.246 63.7476 232.23 80.9899L235.939 89.0008C238.15 97.2425 236.864 102.47 232.083 104.684C225.013 107.958 211.209 104.158 190.671 93.2848C174.198 81.4553 164.767 76.094 162.376 77.2009C157.036 79.6738 155.955 84.3435 159.135 91.2099L168.397 102.209C193.39 135.109 207.591 150.769 210.999 149.192L215.576 147.072L216.89 140.905L192.982 110.282L192.452 109.137L193.596 108.607C193.838 108.706 194.079 108.804 194.319 108.901C215.192 117.347 229.928 119.58 238.527 115.598C248.292 111.076 249.952 99.653 243.505 81.3283C221.261 46.2289 204.213 31.4229 192.362 36.9104L190.073 37.9702C188.242 38.8181 188.158 41.6368 189.82 46.4264L192.469 52.1484L195.902 50.5587L201.095 46.7647ZM269.204 80.1452L269.697 79.917C272.311 78.7063 274.967 78.6123 277.522 79.748C279.995 80.8472 282.197 83.0191 284.19 85.9916L284.443 86.3686L284.486 86.8206C285.097 93.2392 283.696 98.2344 279.153 100.338L278.885 100.462L278.591 100.494C274.52 100.932 270.877 99.9802 267.785 97.5864L267.439 97.3186L266.726 95.7773C264.607 91.2025 265.592 86.048 268.921 80.6084L269.204 80.1452ZM282.701 86.9905C278.908 81.3345 274.825 79.5192 270.45 81.5446C267.286 86.716 266.587 91.209 268.353 95.0237L268.883 96.1681C271.579 98.2552 274.751 99.1028 278.399 98.7107C281.858 97.1092 283.292 93.2024 282.701 86.9905Z" fill="url(#paint0_linear_524_900)"/>
</g>
<g opacity="0.7">
<path fill-rule="evenodd" clip-rule="evenodd" d="M136.037 249.108L136.146 249.058C145.073 244.925 152.823 243.329 159.255 244.652C161.673 245.149 163.86 246.049 165.818 247.333C165.568 245.466 165.877 243.699 166.839 242.127C167.874 240.436 169.555 239.148 171.663 238.171L171.927 238.049L172.217 238.016C175.305 237.669 178.138 238.424 180.622 240.265C183.061 242.073 185.076 244.86 186.74 248.454L186.815 248.615L188.312 254.834C196.463 270.832 203.324 282.364 208.898 289.515C211.706 293.117 214.102 295.495 216.086 296.794C217.759 297.89 218.893 298.073 219.681 297.885C224.027 291.188 226.299 280.938 226.237 266.867L226.232 265.863L226.844 265.484C226.886 265.332 226.935 265.076 226.966 264.682C227.04 263.737 226.986 262.321 226.768 260.379C226.338 256.554 225.308 251.004 223.658 243.693L207.298 211.434L212.304 204.065L212.755 203.857C215.149 202.748 217.679 203.574 219.992 205.254C222.321 206.945 224.833 209.765 227.534 213.568C232.94 221.179 239.432 233.201 247.008 249.551L264.204 273.804C259.903 263.205 254.685 248.337 248.552 229.226L248.47 228.969L248.466 228.698C248.431 225.618 248.678 223.071 249.3 221.173C249.919 219.286 251.068 217.622 253.08 217.2L253.097 217.196L256.279 216.562L263.95 221.609C266.373 215.304 268.675 210.214 270.86 206.366C273.236 202.183 275.635 199.171 278.141 197.857L278.146 197.855L286.505 193.508L286.747 193.458C290.38 192.7 293.742 193.388 296.699 195.532C299.589 197.628 301.977 201.03 303.958 205.516L304.094 205.823L304.11 206.16C304.452 213.757 303.062 224.779 300.02 239.132C313.591 240.949 326.435 240.605 338.565 238.12L339.553 237.918L345.58 244.411L345.678 244.912C346.14 247.279 345.154 249.54 343.402 251.579C341.65 253.616 338.952 255.659 335.433 257.73L335.016 257.975L334.532 257.977C317.601 258.059 304.218 257.828 294.402 257.281C289.495 257.008 285.453 256.655 282.292 256.217C279.568 255.84 277.374 255.385 275.827 254.811C278.201 261.984 280.338 267.796 282.236 272.258C284.329 277.177 286.06 280.276 287.401 281.79L287.942 282.4L287.838 283.209C287.488 285.924 287.008 288.135 286.354 289.752C285.752 291.239 284.758 292.824 283.011 293.172L278.049 294.265C276.705 294.543 275.53 293.893 274.68 293.18C273.795 292.438 272.916 291.347 272.034 290.014C270.71 288.013 269.242 285.251 267.628 281.759L268.297 287.714L261.131 291.033L260.833 291.064C256.949 291.466 253.293 289.495 249.916 285.91C247.184 283.008 244.482 278.899 241.795 273.646C240.859 283.145 239.419 290.981 237.451 297.12C235.229 304.056 232.25 309.091 228.297 311.769L228.177 311.851L228.045 311.912C218.586 316.292 208.616 312.313 198.497 301.667C191.445 294.247 184.072 283.361 176.366 269.066C176.426 278.67 172.554 290.084 165.124 303.155L164.963 303.438L150.778 315.247L162.851 338.367L159.664 343.575L156.882 344.863C155.581 345.466 154.217 345.254 153.014 344.694C151.834 344.145 150.638 343.192 149.429 341.973C147.001 339.523 144.16 335.622 140.911 330.367C134.614 320.183 126.57 304.56 116.786 283.542L110.454 293.236L104.789 291.157L102.355 292.284L101.826 290.185C100.325 284.225 102.907 277.816 108.602 271.142C114.327 264.433 123.477 257.114 135.936 249.173L136.037 249.108ZM109.733 291.061L116.239 281.099L117.383 280.569C137.873 324.82 150.788 345.709 156.128 343.236L158.417 342.176L160.791 338.297L148.518 314.795L163.565 302.268C172.051 287.34 175.63 274.974 174.302 265.171C173.952 262.587 173.261 260.181 172.23 257.953C170.839 254.949 169.139 252.511 167.129 250.638C160.46 244.426 150.384 244.442 136.9 250.686C113.557 265.564 102.341 277.974 103.253 287.915C103.31 288.535 103.414 289.146 103.565 289.747L104.71 289.217L109.733 291.061ZM176.038 264.62C195.495 301.875 212.58 317.096 227.291 310.284C234.093 305.676 238.421 292.433 240.277 270.555C240.307 270.201 240.336 269.845 240.365 269.486L241.509 268.956C241.61 269.173 241.71 269.389 241.811 269.602C241.909 269.811 242.006 270.017 242.104 270.223C248.466 283.55 254.647 289.902 260.648 289.28L266.37 286.63L265.48 278.704L245.45 250.454C230.259 217.648 219.612 202.658 213.509 205.484L209.376 211.567L225.358 243.08C228.724 257.952 229.614 265.878 228.03 266.859C228.095 281.406 225.701 292.243 220.848 299.37C214.439 302.338 203.029 287.701 186.618 255.46L185.112 249.208C181.933 242.341 177.701 239.205 172.417 239.799C168.602 241.565 167.02 244.151 167.67 247.556C167.984 248.233 168.297 248.905 168.609 249.571C169.94 252.409 171.26 255.151 172.569 257.795C173.734 260.147 174.89 262.422 176.038 264.62ZM282.646 291.416C284.235 291.113 285.373 288.301 286.059 282.98C283.065 279.601 279.06 270.318 274.043 255.128C273.856 254.564 273.669 253.992 273.48 253.412L275.939 252.921C281.161 255.26 300.689 256.347 334.524 256.184C341.416 252.127 344.548 248.485 343.917 245.256L338.925 239.877C326.537 242.415 313.443 242.753 299.643 240.891C299.051 240.811 298.457 240.727 297.862 240.639C297.991 240.047 298.117 239.462 298.24 238.882C301.291 224.507 302.651 213.626 302.318 206.24C298.49 197.574 293.422 193.898 287.113 195.214L278.974 199.446C275.11 201.472 270.614 209.196 265.484 222.618C265.269 223.181 265.052 223.754 264.835 224.338L255.908 218.465L253.448 218.955C251.253 219.416 250.19 222.657 250.26 228.678C264.203 272.13 273.345 293.407 277.685 292.509L282.646 291.416ZM129.911 273.342L144.416 301.852C152.85 295.879 158.333 289.885 161.081 283.916C163.968 277.648 163.909 271.265 160.832 264.62L160.303 263.475C159.484 261.707 158.332 260.474 156.855 259.679C155.428 258.911 153.584 258.494 151.241 258.53L135.556 265.792C132.807 267.065 130.992 268.25 129.954 269.303C129.042 270.228 128.901 270.854 128.956 271.28L129.911 273.342ZM150.824 256.746C156.297 256.559 159.999 258.551 161.93 262.722L162.46 263.866C168.857 277.68 163.116 290.88 145.238 303.467C144.751 303.81 144.254 304.153 143.749 304.495L128.297 274.126L127.237 271.837C126.635 269.336 129.157 266.779 134.803 264.165L150.824 256.746ZM272.881 244.516C273.433 244.187 273.97 243.853 274.494 243.514C286.274 235.883 290.854 225.725 288.233 213.04L286.951 206.87L282.032 207.851C273.015 217.253 269.831 228.856 272.481 242.662C272.524 242.888 272.569 243.115 272.616 243.342L272.881 244.516ZM282.942 209.498C274.809 218.206 271.837 228.842 274.112 241.618C279.215 238.2 282.75 234.335 284.836 230.059C287.194 225.224 287.778 219.703 286.477 213.404C286.477 213.403 286.477 213.404 286.477 213.404L285.557 208.977L282.942 209.498ZM346.016 151.879L346.125 151.829C355.052 147.696 362.802 146.1 369.233 147.423C375.788 148.771 380.645 153.079 383.836 159.97C389.171 171.491 385.881 186.964 375.103 205.926L374.941 206.209L360.757 218.018L372.829 241.138L369.642 246.346L366.861 247.634C365.559 248.237 364.196 248.025 362.992 247.465C361.813 246.916 360.617 245.963 359.408 244.744C356.979 242.294 354.139 238.393 350.89 233.138C344.593 222.954 336.549 207.331 326.764 186.313L320.433 196.007L314.768 193.928L312.333 195.055L311.805 192.956C310.304 186.996 312.885 180.587 318.581 173.913C324.306 167.204 333.456 159.885 345.915 151.944L346.016 151.879ZM319.711 193.832L326.217 183.87L327.362 183.34C347.851 227.591 360.767 248.48 366.107 246.007L368.396 244.947L370.769 241.068L358.497 217.566L373.543 205.039C384.266 186.177 387.154 171.405 382.208 160.724C376.203 147.754 364.426 145.331 346.879 153.457C323.535 168.335 312.32 180.745 313.232 190.686C313.289 191.306 313.393 191.917 313.544 192.518L314.689 191.988L319.711 193.832ZM339.889 176.113L354.395 204.623C362.829 198.65 368.311 192.656 371.06 186.687C373.947 180.419 373.888 174.036 370.811 167.391L370.281 166.246C369.463 164.478 368.311 163.245 366.834 162.45C365.406 161.682 363.563 161.265 361.22 161.301L345.535 168.563C342.786 169.836 340.971 171.021 339.933 172.074C339.021 172.999 338.88 173.625 338.934 174.051L339.889 176.113ZM360.803 159.517C366.276 159.33 369.978 161.322 371.909 165.493L372.439 166.637C378.835 180.451 373.095 193.651 355.217 206.238C354.73 206.581 354.233 206.924 353.728 207.266L338.276 176.897L337.216 174.608C336.614 172.107 339.136 169.55 344.781 166.936L360.803 159.517ZM397.43 142.341L398.037 142.486C399.135 142.75 401.484 142.684 405.381 142.044C409.178 141.421 414.183 140.303 420.415 138.678L420.698 138.605L420.99 138.625C437.727 139.772 449.318 146.566 455.197 159.262L455.281 159.442L455.323 159.636C458.618 174.858 459.891 187.009 459.039 196.003C458.2 204.865 455.232 211.159 449.534 213.892L444.337 217.689L444.175 217.764C437.244 220.973 429.699 219.754 421.799 214.705C413.947 209.688 405.542 200.782 396.562 188.166L396.429 187.978L396.347 187.762C391.687 175.486 389.245 165.567 389.174 158.098C389.103 150.603 391.451 145.109 396.865 142.603L397.43 142.341ZM448.614 212.342C458.481 207.773 460.133 190.331 453.57 160.016C448.035 148.063 437.134 141.529 420.867 140.414C408.356 143.675 400.606 144.947 397.618 144.23C388.616 148.399 388.751 162.697 398.024 187.126C415.879 212.213 431.011 221.883 443.422 216.136L448.614 212.342ZM426.568 199.431C431.459 203.334 435.33 204.009 438.513 202.535L441.947 200.945C442.774 200.562 443.554 199.769 444.178 198.263C444.81 196.738 445.229 194.592 445.36 191.743C445.619 186.086 444.727 178.074 442.614 167.637L440.632 163.356C437.183 157.916 433.285 154.705 429.001 153.413C424.696 152.114 419.697 152.661 413.886 155.352C409.744 157.27 407.514 160.045 406.849 163.68C406.162 167.433 407.089 172.391 409.991 178.688C416.15 188.673 421.682 195.532 426.568 199.431ZM408.408 179.538C402.402 166.568 403.977 157.963 413.132 153.724C425.289 148.095 434.981 151.019 442.21 162.496L444.33 167.074C448.635 188.243 448.092 200.076 442.7 202.573L439.267 204.162C431.129 207.931 420.843 199.722 408.408 179.538ZM477.663 92.3112L477.842 92.2285C480.926 90.8001 483.975 90.2783 486.934 90.8078C489.891 91.337 492.584 92.8851 495.012 95.2946L495.46 95.7397L495.531 96.3675C496.053 101.016 495.054 104.889 491.43 106.567L491.362 106.598L477.333 111.727C470.558 117.533 465.99 122.636 463.49 127.035C461.057 131.314 460.701 134.688 461.829 137.402C462.128 137.476 462.664 137.529 463.51 137.494C465.219 137.424 467.756 137.02 471.182 136.238C478.006 134.679 488.012 131.697 501.235 127.271L501.676 127.123L502.133 127.209C511.651 128.985 518.33 133.38 521.68 140.615L521.782 140.835L521.822 141.074C523.572 151.568 523.235 160.42 520.632 167.514C518.005 174.671 513.115 179.912 506.058 183.18L493.47 189.009C488.028 191.529 483.327 192.773 479.487 192.444C475.475 192.1 472.514 190.04 470.828 186.398C470.074 184.77 470.325 182.879 471.004 181.028C471.698 179.137 472.953 176.972 474.684 174.554L475.241 173.777L487.048 174.132L494.674 170.6C501.571 167.407 505.833 161.02 507.208 150.914L504.303 144.64C504.282 144.631 504.253 144.619 504.216 144.606C503.956 144.515 503.473 144.432 502.68 144.439C501.104 144.454 498.761 144.821 495.581 145.607C489.252 147.172 480.027 150.292 467.866 154.998L467.559 155.117L467.231 155.119C456.655 155.193 449.162 151.615 445.583 143.886C443.856 140.157 444.445 135.109 446.634 129.147C448.853 123.1 452.87 115.703 458.618 106.985L458.785 106.731L477.663 92.3112ZM509.054 150.631C507.701 161.449 503.159 168.648 495.428 172.228L487.417 175.937L476.142 175.599C472.766 180.313 471.537 183.661 472.455 185.645C475.281 191.748 482.035 192.327 492.716 187.381L505.305 181.552C518.58 175.405 523.496 162.011 520.052 141.369C517.014 134.808 510.932 130.675 501.804 128.972C475.332 137.832 461.507 140.991 460.329 138.448C457.103 131.48 462.464 122.048 476.413 110.154L490.676 104.939C493.219 103.762 494.243 100.971 493.749 96.5678C489.292 92.1458 484.241 91.2418 478.595 93.8561L460.116 107.972C448.686 125.309 444.385 137.029 447.211 143.133C450.391 149.999 457.06 153.397 467.218 153.325C491.576 143.9 504.461 140.713 505.874 143.765L509.054 150.631ZM542.654 75.2566L542.964 75.1983C545.157 74.7868 547.033 74.6154 548.511 74.7737C549.917 74.9245 551.52 75.4478 552.234 76.9912L552.764 78.1356C553.179 79.0305 553.085 79.9749 552.87 80.7447C552.65 81.5326 552.24 82.3649 551.718 83.2178C550.671 84.9291 548.983 87.0237 546.72 89.4782C542.341 94.2279 535.59 100.561 526.502 108.46L530.392 116.861L532.034 117.464L547.724 107.671L547.879 107.61C552.612 105.76 556.366 104.547 559.087 104.028C560.433 103.771 561.658 103.656 562.674 103.786C563.662 103.912 564.899 104.343 565.482 105.601C565.925 106.558 565.646 107.525 565.406 108.113C565.134 108.776 564.692 109.482 564.156 110.208C563.074 111.672 561.381 113.52 559.132 115.731C554.79 119.997 548.177 125.804 539.319 133.138C542.456 139.897 545.299 144.532 547.816 147.206C550.381 149.929 552.084 150.132 553.291 149.573L554.436 149.043C561.882 145.595 571.142 137.31 582.224 123.863L582.484 123.548L588.106 120.944L594.524 123.3L595.366 125.118C597.003 128.654 595.974 132.461 593.235 136.218C590.529 139.929 585.941 143.924 579.626 148.216C574.15 154.274 565.175 161.206 552.821 169.015L552.723 169.077L552.617 169.126C549.681 170.486 546.51 169.598 543.437 167.44C540.361 165.279 537.023 161.619 533.415 156.611C526.18 146.567 517.522 130.619 507.442 108.85C506.449 106.704 506.913 104.355 508.151 102.087C509.386 99.8229 511.528 97.3636 514.441 94.7134C520.283 89.3983 529.626 82.9642 542.382 75.4175L542.654 75.2566ZM578.438 146.855C591.135 138.258 596.235 131.264 593.738 125.872L593.209 124.728L588.186 122.884L583.608 125.004C572.495 138.488 563.022 147.044 555.189 150.671L554.045 151.201C549.467 153.32 543.999 147.514 537.64 133.781L537.11 132.636C555.882 117.15 564.797 108.389 563.855 106.355C563.054 104.626 557.946 105.601 548.532 109.281L531.281 120.048L530.751 118.904L529.077 118.289L524.308 107.989C543.489 91.3868 552.432 81.6867 551.137 78.8893L550.607 77.7448C549.994 76.4224 547.557 76.1612 543.295 76.9612C517.84 92.0214 506.432 102.4 509.07 108.096C529.206 151.584 543.471 171.385 551.863 167.499C564.287 159.646 573.145 152.765 578.438 146.855ZM612.778 109.706L613.27 109.478C615.885 108.267 618.541 108.173 621.096 109.309C623.568 110.408 625.771 112.58 627.764 115.552L628.017 115.929L628.06 116.381C628.67 122.8 627.27 127.795 622.726 129.899L622.458 130.023L622.164 130.055C618.094 130.492 614.451 129.541 611.359 127.147L611.013 126.879L610.299 125.338C608.181 120.763 609.166 115.609 612.494 110.169L612.778 109.706ZM626.274 116.551C622.482 110.895 618.398 109.08 614.024 111.105C610.86 116.277 610.161 120.77 611.927 124.584L612.457 125.729C615.153 127.816 618.325 128.663 621.973 128.271C625.431 126.67 626.865 122.763 626.274 116.551Z" fill="url(#paint1_linear_524_900)"/>
</g>
<g opacity="0.7">
<path fill-rule="evenodd" clip-rule="evenodd" d="M296.164 435.595C290.485 426.417 284.617 415.272 278.556 402.182L278.463 401.982L278.422 401.765C278.026 399.691 278.295 397.727 279.353 395.999C280.387 394.308 282.068 393.02 284.177 392.044L284.441 391.922L284.73 391.889C287.818 391.542 290.651 392.296 293.135 394.137C295.575 395.945 297.589 398.733 299.253 402.327L299.328 402.488L300.825 408.707C308.976 424.704 315.837 436.237 321.412 443.388C324.219 446.989 326.616 449.368 328.599 450.667C330.273 451.763 331.406 451.945 332.194 451.758C336.54 445.06 338.813 434.81 338.75 420.74L338.745 419.735L339.357 419.357C339.4 419.205 339.449 418.949 339.479 418.555C339.553 417.61 339.499 416.194 339.281 414.252C338.851 410.427 337.821 404.877 336.171 397.566L319.811 365.307L324.818 357.938L325.268 357.729C327.662 356.621 330.192 357.447 332.505 359.126C334.834 360.817 337.346 363.638 340.047 367.441C345.453 375.052 351.945 387.073 359.522 403.424L378.655 430.409C378.91 429.935 379.217 429.477 379.569 429.036C381.19 427.005 383.883 425.167 387.431 423.456C391.222 411.588 389.019 396.329 380.308 377.466L375.791 370.846L375.76 370.354C375.587 367.608 375.61 365.357 375.873 363.668C376.004 362.825 376.207 362.034 376.531 361.366C376.855 360.699 377.37 360.009 378.194 359.628L379.339 359.098C381.783 357.966 384.52 358.05 387.387 359.058C390.228 360.057 393.301 361.993 396.597 364.747C402.98 370.08 410.52 378.752 419.209 390.668L419.651 390.464C420.214 389.374 420.715 387.504 421.023 384.648C421.367 381.469 421.45 377.304 421.257 372.125L421.257 372.116C420.923 361.793 419.209 346.322 416.094 325.659C413.901 320.229 412.677 315.728 412.577 312.246C412.474 308.688 413.57 305.723 416.53 304.353C419.199 303.117 422.12 304.327 424.834 306.446C427.639 308.637 430.82 312.243 434.374 317.143C441.503 326.969 450.429 342.418 461.144 363.423L461.292 363.714L461.733 367.632L476.382 393.194L474.076 402.57L473.294 402.932C468.906 404.964 463.846 403.122 458.562 398.939L458.228 398.674L456.235 394.37L457.305 393.875L433.103 347.165C435.91 365.031 436.958 379.183 436.194 389.562C435.789 395.062 434.87 399.603 433.368 403.107C431.86 406.624 429.709 409.216 426.796 410.565L426.328 410.782L425.816 410.717C415.039 409.341 407.118 405.004 402.388 397.562C404.575 408.757 405.251 417.898 404.327 424.914C403.312 432.624 400.3 438.122 394.86 440.64L391.427 442.23C390.579 442.623 389.652 442.555 388.907 442.402C388.116 442.239 387.235 441.916 386.292 441.485C384.695 440.756 382.733 439.629 380.422 438.133L380.81 441.587L373.644 444.905L373.347 444.936C369.462 445.339 365.806 443.368 362.43 439.782C359.697 436.881 356.996 432.771 354.308 427.518C353.372 437.017 351.932 444.854 349.965 450.993C347.742 457.929 344.763 462.964 340.811 465.642L340.69 465.723L340.558 465.784C331.099 470.164 321.129 466.185 311.011 455.539C307.58 451.93 304.073 447.5 300.489 442.257C300.093 446.165 299.003 449.377 296.809 451.22C299.886 457.789 303.87 463.476 308.758 468.296L309.201 468.732L309.278 469.35C309.635 472.191 309.657 474.656 309.274 476.686C308.89 478.72 308.067 480.469 306.605 481.635L306.436 481.77L303.951 482.921C302.296 483.687 300.579 483.161 299.135 482.253C297.675 481.335 296.127 479.816 294.493 477.831C291.399 474.073 287.692 468.267 283.378 460.482C277.768 463.1 273.56 465.508 270.694 467.698C268.102 469.677 266.856 471.291 266.434 472.512L279.047 493.876L279.107 494.056C280.333 497.72 281.023 500.769 281.059 503.117C281.095 505.398 280.493 507.68 278.351 508.672L276.062 509.732C274.238 510.577 272.365 509.79 270.86 508.688C269.293 507.539 267.585 505.674 265.741 503.22C262.232 498.554 257.946 491.376 252.889 481.746L242.623 487.807L235.189 482.756L233.798 479.752L233.766 479.463C233.226 474.659 237.051 471.031 242.974 468.288L243.636 467.982L243.373 467.415L225.979 438.951L225.955 438.498C225.825 436.047 226.13 433.854 226.999 432.018C227.886 430.146 229.313 428.752 231.209 427.873C232.156 427.435 233.137 427.547 233.955 427.832C234.765 428.115 235.579 428.62 236.379 429.242C237.986 430.491 239.876 432.478 242.035 435.114C246.196 440.195 251.595 447.987 258.22 458.447C262.605 456.351 267.768 452.382 273.718 446.409L252.119 414.398L252.086 413.916C251.96 412.054 251.998 410.45 252.268 409.185C252.523 407.986 253.091 406.623 254.436 406L256.725 404.941C258.617 404.065 260.695 404.946 262.434 406.116C264.301 407.372 266.465 409.422 268.911 412.167C273.663 417.499 279.751 425.769 287.162 436.923C289.843 436.119 292.072 435.627 293.804 435.497C294.634 435.435 295.438 435.448 296.164 435.595ZM286.409 439.034C270.937 415.624 261.293 404.802 257.478 406.568L255.189 407.628C254.07 408.146 253.633 410.202 253.876 413.795L276.025 446.622C269.453 453.372 263.674 457.9 258.69 460.208L257.545 460.738C243.542 438.5 235.015 428.088 231.963 429.501C228.911 430.914 227.506 433.881 227.746 438.403L244.957 466.567L246.017 468.856L243.728 469.916C237.879 472.624 235.152 475.74 235.548 479.263L236.608 481.552L242.691 485.684L253.605 479.24C253.884 479.779 254.161 480.309 254.436 480.833C264.833 500.643 271.79 509.733 275.309 508.104L277.597 507.045C279.886 505.985 279.822 501.845 277.406 494.625L264.519 472.797C265.14 468.803 271.3 464.098 282.998 458.681L284.143 458.151C293.438 475.157 299.789 482.871 303.197 481.293L305.486 480.233C307.516 478.614 308.187 475.06 307.499 469.573C302.504 464.648 298.432 458.853 295.283 452.19C295.207 452.03 295.132 451.869 295.057 451.708L294.527 450.563C296.918 449.456 298.323 446.489 298.744 441.662L297.154 438.228C296.448 436.703 292.866 436.971 286.409 439.034ZM352.79 424.427C352.82 424.074 352.849 423.717 352.878 423.359L354.023 422.829C354.123 423.046 354.223 423.261 354.324 423.475C354.422 423.683 354.52 423.89 354.618 424.095C360.979 437.422 367.16 443.775 373.161 443.152L378.884 440.503L377.993 432.576L357.963 404.327C342.773 371.521 332.125 356.531 326.022 359.357L321.89 365.439L337.872 396.953C341.237 411.825 342.128 419.751 340.543 420.732C340.608 435.279 338.214 446.116 333.361 453.243C326.952 456.21 315.542 441.573 299.131 409.332L297.626 403.08C294.446 396.214 290.215 393.078 284.93 393.671C281.116 395.438 279.533 398.023 280.184 401.428C303.146 451.019 323.02 471.929 339.805 464.157C346.606 459.549 350.935 446.306 352.79 424.427ZM380.162 435.814C385.852 439.616 389.356 441.213 390.673 440.603L394.106 439.013C403.414 434.703 405.363 419.903 399.953 394.612L402.242 393.553C406.292 402.301 414.226 407.429 426.043 408.937C435.605 404.51 437.193 382.928 430.807 344.191L431.951 343.662L433.626 344.276L459.76 394.714L458.616 395.244L459.676 397.533C464.844 401.626 469.133 402.883 472.54 401.305L474.469 393.463L459.992 368.202L459.547 364.238C438.136 322.268 424.048 302.848 417.283 305.981C413.214 307.865 413.398 314.265 417.835 325.182C420.973 345.965 422.711 361.591 423.049 372.058C423.438 382.502 422.726 389.102 420.913 391.856L418.624 392.916C400.566 367.923 387.722 357.193 380.092 360.726L378.948 361.255C377.676 361.844 377.21 364.84 377.55 370.242L381.874 376.578C390.894 396.058 393.233 412.116 388.892 424.75C383.55 427.224 380.511 429.766 379.775 432.378C379.46 433.496 379.568 434.627 380.097 435.771C380.119 435.786 380.14 435.8 380.162 435.814ZM459.324 297.045L460.952 296.292C463.682 295.027 466.667 295.835 469.569 297.759C472.387 299.628 475.471 302.756 478.823 307.018C487.797 309.992 499.615 318.81 514.2 333.07C514.966 333.034 515.711 333.248 516.381 333.609C517.379 334.146 518.312 335.048 519.193 336.14C520.93 338.294 522.835 341.66 524.918 346.127L545.732 367.066L546.707 369.171L544.966 373.915L540.859 375.816C540.03 376.2 539.139 376.212 538.329 376.07C537.516 375.927 536.659 375.608 535.781 375.179C534.026 374.322 531.923 372.889 529.495 370.952C524.807 367.211 518.652 361.378 511.049 353.493C503.094 357.978 497.656 362.028 494.567 365.619C491.469 369.219 491.021 371.967 492.055 374.201L492.085 374.265L492.109 374.33C494.765 381.472 496.455 387.097 497.12 391.147C497.45 393.16 497.551 394.915 497.321 396.325C497.092 397.724 496.461 399.154 494.998 399.832L491.565 401.421C489.769 402.253 487.897 401.445 486.403 400.383C484.82 399.258 483.059 397.434 481.125 395.025L480.897 394.741L480.798 394.391C472.52 365.171 466.492 342.723 462.721 327.058C460.836 319.229 459.508 313.066 458.745 308.588C458.364 306.352 458.118 304.501 458.017 303.056C457.967 302.333 457.951 301.683 457.98 301.12C458.006 300.581 458.078 300.01 458.263 299.505L458.519 298.808L459.854 298.19L459.324 297.045ZM511.45 351.323C527.451 368.004 537.002 375.626 540.105 374.189L543.538 372.599L544.767 369.251L544.237 368.106L523.424 347.168C519.185 338.013 515.921 333.965 513.632 335.025C498.432 320.074 486.471 311.251 477.75 308.557C471.877 300.997 467.12 297.306 463.481 297.485C462.856 297.516 462.265 297.66 461.706 297.919L462.236 299.064L459.947 300.123C458.445 304.216 465.97 335.476 482.524 393.902C486.319 398.631 489.082 400.594 490.811 399.794L494.244 398.204C496.991 396.932 495.719 389.183 490.428 374.955C487.507 368.648 494.133 360.947 510.306 351.853L511.45 351.323ZM485.997 353.381L502.103 343.143L501.043 340.854C488.488 327.211 480.964 320.967 478.471 322.121L476.182 323.181L485.997 353.381ZM478.38 324.14L486.988 350.626L499.816 342.472L499.534 341.863C493.361 335.165 488.469 330.332 484.838 327.319C482.996 325.79 481.549 324.789 480.471 324.242C479.933 323.968 479.555 323.843 479.315 323.798C479.238 323.784 479.187 323.78 479.158 323.779L478.38 324.14ZM611.991 305.289L612.059 305.481C615.321 314.753 616.623 322.514 615.732 328.645C614.823 334.905 611.621 339.437 606.142 341.974C601.335 344.2 595.008 344.582 587.357 343.391C580.501 342.325 572.43 339.971 563.162 336.366L585.68 365.208L584.006 373.071L578.614 375.567C577.457 376.103 576.234 375.759 575.344 375.361C574.38 374.929 573.311 374.211 572.161 373.292C569.847 371.441 566.895 368.518 563.326 364.582C556.177 356.698 546.349 344.52 533.858 328.078L524.47 316.93L524.369 316.712C522.702 313.112 522.006 309.793 522.675 306.902C523.369 303.905 525.439 301.732 528.485 300.321C529.216 299.983 530.01 299.974 530.684 300.057C531.383 300.143 532.15 300.353 532.959 300.644C534.578 301.227 536.598 302.22 538.991 303.581C543.771 306.298 550.275 310.615 558.479 316.505C568.647 321.881 577.066 325.464 583.765 327.308C590.561 329.179 595.253 329.165 598.191 327.805C600.075 326.932 601.237 325.521 601.753 323.423C602.287 321.253 602.141 318.271 601.108 314.361L597.464 306.492C589.798 289.935 579.998 279.066 568.172 273.577L563.679 276.86L558.457 279.278L555.017 271.847L554.987 271.762C554.132 269.299 553.654 267.151 553.706 265.414C553.759 263.636 554.411 261.911 556.182 261.091L558.471 260.031C565.419 256.813 573.432 259.787 582.074 267.293C590.797 274.869 600.731 287.521 611.882 305.116L611.991 305.289ZM567.957 271.513C580.729 277.087 591.108 288.496 599.092 305.738L602.801 313.749C605.012 321.991 603.726 327.218 598.945 329.432C591.875 332.706 578.071 328.906 557.533 318.033C541.06 306.203 531.629 300.842 529.238 301.949C523.898 304.422 522.817 309.092 525.997 315.958L535.259 326.957C560.252 359.857 574.453 375.518 577.861 373.94L582.438 371.82L583.752 365.653L559.844 335.03L559.314 333.885L560.458 333.356C560.7 333.454 560.941 333.552 561.181 333.65C582.054 342.096 596.79 344.328 605.389 340.346C615.154 335.824 616.814 324.401 610.367 306.076C588.123 270.977 571.075 256.171 559.224 261.659L556.935 262.718C555.104 263.566 555.02 266.385 556.682 271.174L559.331 276.897L562.764 275.307L567.957 271.513ZM630.154 227.672L630.333 227.59C633.417 226.161 636.466 225.639 639.425 226.169C642.382 226.698 645.075 228.246 647.503 230.656L647.952 231.101L648.022 231.729C648.545 236.378 647.545 240.25 643.921 241.928L643.853 241.959L629.824 247.089C623.049 252.894 618.482 257.997 615.981 262.396C613.548 266.675 613.192 270.049 614.32 272.763C614.62 272.837 615.155 272.89 616.002 272.855C617.71 272.785 620.247 272.382 623.673 271.599C630.497 270.04 640.503 267.058 653.726 262.632L654.167 262.485L654.624 262.57C664.143 264.346 670.821 268.742 674.171 275.976L674.273 276.196L674.313 276.435C676.063 286.929 675.727 295.781 673.123 302.875C670.496 310.032 665.606 315.273 658.549 318.541L645.961 324.37C640.519 326.89 635.818 328.134 631.978 327.805C627.966 327.461 625.005 325.401 623.319 321.76C622.565 320.132 622.816 318.24 623.495 316.389C624.189 314.498 625.444 312.333 627.175 309.916L627.732 309.139L639.539 309.493L647.165 305.961C654.063 302.768 658.324 296.382 659.699 286.275L656.794 280.001C656.773 279.992 656.744 279.98 656.708 279.967C656.447 279.877 655.964 279.793 655.172 279.8C653.596 279.815 651.253 280.182 648.072 280.968C641.744 282.534 632.519 285.653 620.357 290.359L620.05 290.478L619.722 290.48C609.146 290.554 601.654 286.976 598.075 279.247C596.348 275.518 596.937 270.471 599.125 264.508C601.344 258.461 605.362 251.065 611.109 242.346L611.277 242.092L630.154 227.672ZM661.545 285.992C660.192 296.81 655.65 304.009 647.919 307.589L639.908 311.298L628.633 310.96C625.257 315.674 624.028 319.022 624.946 321.006C627.773 327.109 634.526 327.688 645.207 322.742L657.796 316.913C671.071 310.767 675.987 297.372 672.544 276.73C669.506 270.169 663.423 266.036 654.295 264.333C627.823 273.194 613.998 276.352 612.821 273.809C609.594 266.841 614.955 257.41 628.905 245.515L643.167 240.301C645.71 239.123 646.735 236.332 646.24 231.929C641.783 227.507 636.732 226.603 631.086 229.217L612.607 243.333C601.178 260.67 596.876 272.39 599.702 278.494C602.882 285.36 609.551 288.758 619.709 288.686C644.067 279.261 656.952 276.074 658.366 279.126L661.545 285.992ZM697.921 276.252L698.414 276.024C701.028 274.813 703.684 274.719 706.239 275.855C708.712 276.954 710.914 279.126 712.907 282.098L713.16 282.475L713.203 282.927C713.814 289.346 712.413 294.341 707.87 296.445L707.601 296.569L707.308 296.601C703.237 297.038 699.594 296.087 696.502 293.693L696.156 293.425L695.442 291.884C693.324 287.309 694.309 282.155 697.637 276.715L697.921 276.252ZM711.417 283.097C707.625 277.441 703.541 275.626 699.167 277.651C696.003 282.823 695.304 287.316 697.07 291.13L697.6 292.275C700.296 294.362 703.468 295.209 707.116 294.817C710.575 293.216 712.008 289.309 711.417 283.097Z" fill="url(#paint2_linear_524_900)"/>
</g>
<defs>
<linearGradient id="paint0_linear_524_900" x1="203.838" y1="174.148" x2="162.574" y2="85.9185" gradientUnits="userSpaceOnUse">
<stop stop-color="#EEF2F7"/>
<stop offset="1" stop-color="#E5ECF0"/>
</linearGradient>
<linearGradient id="paint1_linear_524_900" x1="437.494" y1="240.277" x2="400.219" y2="160.133" gradientUnits="userSpaceOnUse">
<stop stop-color="#EEF2F7"/>
<stop offset="1" stop-color="#E5ECF0"/>
</linearGradient>
<linearGradient id="paint2_linear_524_900" x1="541.033" y1="414.251" x2="496.534" y2="318.688" gradientUnits="userSpaceOnUse">
<stop stop-color="#EEF2F7"/>
<stop offset="1" stop-color="#E5ECF0"/>
</linearGradient>
</defs>
</svg>
