<svg width="296" height="225" viewBox="0 0 296 225" fill="none" xmlns="http://www.w3.org/2000/svg">
<g opacity="0.7">
<path fill-rule="evenodd" clip-rule="evenodd" d="M62.0776 92.7944L62.5294 92.7211C65.0012 92.3206 67.2956 92.6139 69.2925 93.749C71.2751 94.876 72.7763 96.7259 73.8753 99.0993C73.8893 99.1294 73.9025 99.1595 73.9151 99.1896C73.9542 97.8608 74.3089 96.5997 75.016 95.4441C76.0508 93.7532 77.7315 92.465 79.84 91.4886L80.1041 91.3663L80.3934 91.3338C83.4814 90.9868 86.3145 91.7411 88.7986 93.5822C91.238 95.3901 93.2524 98.1774 94.9167 101.772L94.9913 101.933L96.4885 108.152C104.639 124.149 111.5 135.682 117.075 142.833C119.882 146.434 122.279 148.813 124.263 150.112C125.936 151.208 127.069 151.39 127.858 151.203C132.204 144.505 134.476 134.255 134.413 120.185L134.409 119.18L135.02 118.802C135.063 118.65 135.112 118.393 135.143 117.999C135.216 117.054 135.163 115.638 134.945 113.697C134.515 109.872 133.485 104.321 131.834 97.0104L115.475 64.7517L120.481 57.3827L120.932 57.1739C123.326 56.0654 125.856 56.8914 128.169 58.5711C130.498 60.2622 133.009 63.0826 135.711 66.8858C141.116 74.4966 147.608 86.5179 155.185 102.869L175.387 131.361L176.474 141.032L169.307 144.35L169.01 144.381C165.126 144.784 161.47 142.813 158.093 139.227C155.36 136.326 152.659 132.216 149.971 126.963C149.035 136.462 147.595 144.299 145.628 150.437C143.405 157.374 140.426 162.409 136.474 165.087L136.353 165.168L136.221 165.229C126.763 169.609 116.792 165.63 106.674 154.984C102.989 151.107 99.2164 146.284 95.3546 140.523C86.837 148.03 78.4473 156.514 70.1866 165.977C74.1388 173.176 77.2484 178.517 79.5235 182.023C80.7248 183.875 81.6544 185.154 82.3255 185.918C82.4243 186.03 82.5116 186.125 82.5878 186.204L84.2846 185.418L84.3674 188.131C84.4333 190.287 84.3044 192.155 83.9292 193.681C83.5582 195.19 82.8969 196.56 81.7402 197.449L81.5817 197.571L79.1114 198.715C77.4721 199.474 75.7155 198.896 74.2469 198.028C72.7149 197.122 71.0091 195.623 69.1423 193.641C65.5858 189.865 61.157 184.019 55.867 176.162C53.5425 177.535 51.9242 178.64 50.9455 179.485C50.615 179.77 50.3962 179.993 50.2573 180.155L51.0678 181.905L48.5809 182.173C44.5105 182.61 40.8674 181.659 37.7753 179.265L37.4295 178.997L36.1859 176.312C35.6423 175.138 35.8036 173.906 36.2547 172.825C36.6974 171.763 37.4772 170.688 38.4678 169.608C40.3815 167.523 43.3913 165.091 47.4103 162.321L47.5715 161.882L47.4271 161.57C42.0191 154.119 37.6292 148.468 34.248 144.593C32.5448 142.641 31.1255 141.172 29.982 140.158C29.4366 139.675 28.9945 139.333 28.648 139.096L24.4437 143.549L23.7908 143.623C21.0902 143.926 18.8357 143.978 17.1051 143.708C15.4788 143.455 13.7302 142.823 12.9769 141.196L11.3871 137.762C11.0195 136.969 11.249 136.215 11.3817 135.869C11.5402 135.456 11.7854 135.056 12.0415 134.693C12.5623 133.955 13.3521 133.062 14.356 132.038C16.3794 129.972 19.4865 127.156 23.647 123.604C31.9799 116.49 44.6747 106.311 61.7161 93.0751L62.0776 92.7944ZM28.2528 136.902C31.1389 137.666 38.0484 145.584 48.9814 160.658L49.5113 161.803L48.8968 163.477C40.4481 169.242 36.7537 173.269 37.8135 175.558L38.8733 177.847C41.1086 179.577 43.6713 180.456 46.5612 180.482C47.1566 180.487 47.766 180.456 48.3893 180.389C48.3304 180.262 48.3151 180.12 48.3433 179.962C48.5411 178.857 50.8734 177 55.3403 174.391L56.4847 173.861C67.8115 190.853 75.1026 198.595 78.3578 197.088L80.6466 196.028C81.8388 195.111 82.4826 193.104 82.5778 190.008C82.5954 189.438 82.5943 188.83 82.5747 188.186C82.4956 188.223 82.4014 188.226 82.292 188.195C80.7104 187.749 75.9509 180.265 68.0134 165.743C76.6449 155.777 85.4254 146.867 94.3548 139.013C94.8092 138.613 95.2639 138.216 95.7191 137.822C96.0521 138.333 96.3844 138.836 96.7158 139.332C111.077 160.825 123.994 168.915 135.468 163.602C142.269 158.994 146.598 145.75 148.453 123.872C148.483 123.518 148.513 123.162 148.541 122.804L149.686 122.274C149.786 122.491 149.887 122.706 149.987 122.92C150.085 123.128 150.183 123.335 150.281 123.54C156.642 136.867 162.823 143.219 168.825 142.597L174.547 139.947L173.656 132.021L153.627 103.772C138.436 70.9654 127.789 55.9753 121.685 58.8015L117.553 64.8843L133.535 96.3977C136.9 111.27 137.791 119.196 136.207 120.177C136.272 134.724 133.878 145.561 129.024 152.688C122.616 155.655 111.206 141.018 94.7942 108.777L93.2891 102.525C90.1097 95.6588 85.8778 92.5225 80.5937 93.1162C76.779 94.8826 75.1967 97.4683 75.8469 100.873C80.316 110.525 84.6681 119.09 88.9033 126.569C89.1832 127.063 89.4626 127.553 89.7415 128.038C89.7632 128.076 89.7849 128.113 89.8066 128.151L60.51 152.54C58.9842 153.247 52.4561 145.152 40.9258 128.254L42.1548 124.905C63.3001 110.543 73.3311 102.193 72.2477 99.853C70.2694 95.5805 67.1256 93.7934 62.8163 94.4917C28.7439 120.954 12.1433 135.127 13.0147 137.009L14.6045 140.442C15.311 141.968 18.3064 142.434 23.5905 141.84L28.2528 136.902ZM43.64 126.065L42.9279 128.005C48.4368 136.056 52.7457 142.004 55.8658 145.873C57.4822 147.877 58.7344 149.267 59.6403 150.098C59.832 150.274 59.9954 150.413 60.1321 150.521L87.5025 127.735C83.1817 120.128 78.7546 111.422 74.2193 101.627L74.1265 101.427L74.0851 101.21C74.0683 101.122 74.0528 101.035 74.0385 100.947C73.9725 101.24 73.8749 101.507 73.774 101.736C73.4641 102.439 72.958 103.162 72.3517 103.886C71.1286 105.347 69.2168 107.141 66.6846 109.249C61.6766 113.419 53.9835 119.028 43.64 126.065ZM60.6299 150.849C60.6307 150.85 60.6168 150.846 60.5864 150.83C60.614 150.84 60.6292 150.847 60.6299 150.849ZM82.9545 186.537C82.9547 186.537 82.9543 186.537 82.9545 186.537C83.0138 186.578 83.0099 186.566 82.9545 186.537ZM244.882 80.1039L244.95 80.2964C248.212 89.5686 249.514 97.329 248.623 103.461C247.714 109.72 244.512 114.252 239.033 116.789C234.226 119.015 227.9 119.397 220.248 118.207C213.392 117.14 205.321 114.786 196.053 111.181L218.571 140.023L216.897 147.886L211.505 150.382C210.349 150.918 209.125 150.574 208.235 150.176C207.271 149.744 206.202 149.027 205.052 148.107C202.738 146.256 199.786 143.334 196.217 139.397C189.068 131.513 179.241 119.335 166.749 102.893L157.361 91.7449L157.26 91.5269C155.594 87.9276 154.897 84.6082 155.566 81.7168C156.26 78.7198 158.33 76.5469 161.376 75.1366C162.108 74.7978 162.902 74.7894 163.575 74.8721C164.274 74.9581 165.041 75.1682 165.85 75.4592C167.469 76.0418 169.489 77.0355 171.882 78.3957C176.662 81.1128 183.166 85.4305 191.37 91.3199C201.538 96.6965 209.957 100.279 216.657 102.124C223.453 103.994 228.144 103.98 231.083 102.62C232.966 101.748 234.128 100.336 234.644 98.238C235.178 96.0684 235.032 93.0866 233.999 89.1762L230.355 81.3069C222.689 64.7504 212.89 53.8811 201.063 48.392L196.57 51.675L191.348 54.093L187.908 46.6622L187.878 46.5777C187.024 44.1142 186.545 41.9664 186.597 40.2297C186.65 38.4514 187.302 36.7258 189.073 35.906L191.362 34.8461C198.31 31.6287 206.323 34.6026 214.965 42.1084C223.688 49.6841 233.622 62.3361 244.773 79.9315L244.882 80.1039ZM200.848 46.3281C213.621 51.9025 223.999 63.3109 231.983 80.5533L235.692 88.5641C237.903 96.8058 236.617 102.034 231.836 104.247C224.766 107.521 210.962 103.721 190.424 92.8481C173.951 81.0186 164.52 75.6573 162.13 76.7642C156.789 79.2372 155.708 83.9068 158.888 90.7733L168.15 101.772C193.143 134.672 207.344 150.333 210.752 148.755L215.329 146.635L216.643 140.468L192.735 109.845L192.205 108.701L193.349 108.171C193.591 108.27 193.832 108.368 194.072 108.465C214.945 116.911 229.681 119.143 238.28 115.162C248.045 110.64 249.705 99.2164 243.258 80.8916C221.014 45.7922 203.966 30.9862 192.115 36.4737L189.827 37.5336C187.996 38.3814 187.911 41.2001 189.573 45.9897L192.222 51.7117L195.656 50.122L200.848 46.3281ZM268.957 79.7085L269.45 79.4803C272.065 78.2696 274.721 78.1757 277.275 79.3114C279.748 80.4106 281.95 82.5825 283.943 85.5549L284.196 85.932L284.239 86.384C284.85 92.8026 283.449 97.7978 278.906 99.9016L278.638 100.026L278.344 100.057C274.273 100.495 270.63 99.5435 267.538 97.1497L267.192 96.882L266.479 95.3407C264.36 90.7658 265.345 85.6113 268.674 80.1718L268.957 79.7085ZM282.454 86.5538C278.661 80.8978 274.578 79.0825 270.204 81.1079C267.039 86.2793 266.34 90.7724 268.106 94.5871L268.636 95.7315C271.332 97.8186 274.504 98.6661 278.152 98.274C281.611 96.6725 283.045 92.7658 282.454 86.5538Z" fill="url(#paint0_linear_517_757)"/>
</g>
<defs>
<linearGradient id="paint0_linear_517_757" x1="203.591" y1="173.712" x2="162.327" y2="85.4818" gradientUnits="userSpaceOnUse">
<stop stop-color="#EEF2F7"/>
<stop offset="1" stop-color="#E5ECF0"/>
</linearGradient>
</defs>
</svg>
