<svg width="527" height="339" viewBox="0 0 527 339" fill="none" xmlns="http://www.w3.org/2000/svg">
<g opacity="0.7">
<path fill-rule="evenodd" clip-rule="evenodd" d="M97.9169 249.158C92.2378 239.98 86.3701 228.835 80.3091 215.745L80.2163 215.545L80.1749 215.328C79.779 213.255 80.0484 211.291 81.1059 209.563C82.1406 207.872 83.8213 206.584 85.9299 205.607L86.194 205.485L86.4832 205.452C89.5713 205.105 92.4043 205.86 94.8885 207.701C97.3279 209.509 99.3423 212.296 101.007 215.89L101.081 216.051L102.578 222.27C110.729 238.268 117.59 249.8 123.165 256.951C125.972 260.553 128.369 262.931 130.353 264.23C132.026 265.326 133.159 265.508 133.948 265.321C138.294 258.624 140.566 248.374 140.503 234.303L140.499 233.299L141.11 232.92C141.153 232.768 141.202 232.512 141.233 232.118C141.306 231.173 141.253 229.757 141.034 227.815C140.605 223.99 139.574 218.44 137.924 211.129L121.565 178.87L126.571 171.501L127.022 171.292C129.416 170.184 131.946 171.01 134.259 172.69C136.587 174.381 139.099 177.201 141.8 181.004C147.206 188.615 153.698 200.636 161.275 216.987L180.408 243.972C180.663 243.498 180.971 243.04 181.322 242.6C182.943 240.568 185.637 238.73 189.184 237.02C192.975 225.151 190.773 209.892 182.061 191.029L177.544 184.409L177.513 183.917C177.34 181.171 177.363 178.92 177.626 177.231C177.757 176.388 177.96 175.598 178.285 174.929C178.608 174.263 179.124 173.573 179.948 173.191L181.092 172.661C183.536 171.53 186.274 171.614 189.14 172.622C191.981 173.62 195.054 175.557 198.35 178.31C204.733 183.643 212.273 192.315 220.962 204.232L221.404 204.027C221.968 202.937 222.469 201.067 222.777 198.212C223.12 195.032 223.203 190.867 223.01 185.688L223.01 185.68C222.676 175.356 220.962 159.886 217.847 139.222C215.654 133.792 214.43 129.291 214.33 125.809C214.227 122.251 215.323 119.287 218.283 117.916C220.952 116.68 223.873 117.89 226.587 120.01C229.392 122.201 232.573 125.807 236.128 130.706C243.256 140.532 252.182 155.981 262.897 176.987L263.046 177.277L263.486 181.195L278.135 206.758L275.83 216.134L275.047 216.496C270.659 218.528 265.599 216.686 260.316 212.503L259.981 212.238L257.988 207.934L259.058 207.438L234.856 160.729C237.663 178.594 238.711 192.747 237.947 203.125C237.543 208.625 236.623 213.167 235.121 216.67C233.613 220.187 231.462 222.78 228.55 224.128L228.081 224.345L227.569 224.28C216.792 222.904 208.871 218.567 204.141 211.125C206.328 222.32 207.004 231.461 206.08 238.478C205.065 246.187 202.053 251.685 196.613 254.204L193.18 255.794C192.332 256.186 191.405 256.119 190.66 255.965C189.869 255.802 188.989 255.48 188.045 255.049C186.449 254.319 184.486 253.193 182.175 251.696L182.563 255.15L175.397 258.469L175.1 258.5C171.216 258.902 167.559 256.931 164.183 253.346C161.45 250.444 158.749 246.335 156.061 241.082C155.125 250.581 153.685 258.417 151.718 264.556C149.495 271.492 146.516 276.527 142.564 279.205L142.443 279.287L142.311 279.348C132.852 283.728 122.882 279.749 112.764 269.103C109.333 265.493 105.827 261.064 102.243 255.82C101.846 259.728 100.756 262.941 98.5617 264.783C101.639 271.352 105.623 277.039 110.511 281.859L110.954 282.296L111.032 282.913C111.388 285.755 111.41 288.22 111.027 290.25C110.643 292.284 109.82 294.032 108.358 295.199L108.189 295.333L105.704 296.484C104.049 297.25 102.332 296.724 100.888 295.816C99.4283 294.898 97.8806 293.379 96.2463 291.394C93.152 287.636 89.4455 281.831 85.1316 274.046C79.5213 276.663 75.3136 279.071 72.4467 281.261C69.8555 283.241 68.6092 284.854 68.1867 286.075L80.7997 307.44L80.8598 307.619C82.0862 311.283 82.7764 314.332 82.8126 316.681C82.8478 318.961 82.2466 321.243 80.1042 322.235L77.8153 323.295C75.9912 324.14 74.1183 323.354 72.6136 322.251C71.046 321.102 69.3387 319.237 67.4937 316.784C63.9852 312.118 59.6996 304.94 54.6424 295.309L44.3764 301.37L36.9421 296.319L35.5512 293.316L35.5187 293.026C34.9789 288.223 38.8044 284.594 44.7275 281.852L45.3887 281.546L45.1259 280.978L27.7323 252.514L27.7082 252.061C27.5778 249.61 27.8828 247.417 28.7522 245.582C29.6394 243.709 31.066 242.315 32.9625 241.437C33.9091 240.998 34.8907 241.11 35.7084 241.395C36.5183 241.678 37.3317 242.183 38.1323 242.806C39.7392 244.055 41.6294 246.041 43.7882 248.677C47.9494 253.758 53.3481 261.55 59.9731 272.011C64.3581 269.915 69.5215 265.946 75.4708 259.973L53.8722 227.962L53.8395 227.48C53.7135 225.617 53.7512 224.014 54.0208 222.748C54.276 221.55 54.8445 220.186 56.189 219.564L58.4778 218.504C60.3698 217.628 62.4477 218.509 64.1867 219.679C66.0546 220.936 68.2186 222.986 70.6643 225.73C75.4162 231.063 81.5039 239.332 88.9152 250.487C91.5964 249.682 93.8253 249.19 95.5571 249.06C96.3869 248.998 97.1913 249.011 97.9169 249.158ZM88.1625 252.598C72.6898 229.187 63.0461 218.365 59.2315 220.132L56.9426 221.191C55.8237 221.709 55.3858 223.765 55.6291 227.359L77.7783 260.186C71.2059 266.935 65.4275 271.464 60.443 273.772L59.2986 274.302C45.2954 252.064 36.7679 241.651 33.7162 243.064C30.6644 244.477 29.2588 247.445 29.4993 251.966L46.7101 280.131L47.7699 282.42L45.4811 283.479C39.6319 286.188 36.9053 289.303 37.3011 292.826L38.3609 295.115L44.4437 299.247L55.3578 292.804C55.6373 293.342 55.9143 293.873 56.1889 294.396C66.5858 314.206 73.5434 323.297 77.0617 321.668L79.3505 320.608C81.6393 319.548 81.5755 315.408 79.159 308.189L66.272 286.36C66.8934 282.366 73.0533 277.661 84.7516 272.244L85.8961 271.714C95.1912 288.72 101.543 296.434 104.95 294.856L107.239 293.796C109.269 292.177 109.94 288.624 109.252 283.136C104.257 278.211 100.185 272.417 97.0358 265.753C96.9601 265.593 96.8849 265.432 96.8102 265.271L96.2803 264.126C98.6708 263.02 100.076 260.052 100.497 255.225L98.9075 251.792C98.2009 250.266 94.6193 250.535 88.1625 252.598ZM154.543 237.991C154.573 237.637 154.603 237.281 154.631 236.922L155.776 236.392C155.876 236.609 155.977 236.825 156.077 237.038C156.175 237.247 156.273 237.453 156.371 237.659C162.732 250.986 168.913 257.338 174.915 256.715L180.637 254.066L179.746 246.14L159.716 217.89C144.526 185.084 133.879 170.094 127.775 172.92L123.643 179.003L139.625 210.516C142.99 225.388 143.881 233.314 142.297 234.295C142.362 248.842 139.967 259.679 135.114 266.806C128.706 269.774 117.295 255.137 100.884 222.896L99.3789 216.644C96.1995 209.777 91.9677 206.641 86.6835 207.235C82.8688 209.001 81.2866 211.587 81.9367 214.992C104.899 264.583 124.773 285.492 141.558 277.72C148.359 273.112 152.688 259.869 154.543 237.991ZM181.915 249.378C187.605 253.18 191.109 254.776 192.426 254.166L195.859 252.576C205.167 248.266 207.116 233.466 201.706 208.176L203.995 207.116C208.046 215.864 215.979 220.993 227.796 222.501C237.358 218.073 238.946 196.491 232.56 157.755L233.705 157.225L235.379 157.839L261.514 208.278L260.369 208.808L261.429 211.097C266.598 215.189 270.886 216.446 274.294 214.868L276.222 207.026L261.745 181.765L261.3 177.802C239.889 135.831 225.801 116.412 219.036 119.544C214.967 121.428 215.151 127.829 219.589 138.745C222.727 159.529 224.465 175.154 224.802 185.622C225.191 196.066 224.479 202.665 222.666 205.419L220.377 206.479C202.319 181.486 189.475 170.756 181.846 174.289L180.701 174.819C179.43 175.408 178.964 178.403 179.303 183.805L183.627 190.141C192.647 209.622 194.986 225.679 190.645 238.313C185.303 240.787 182.264 243.33 181.529 245.941C181.214 247.06 181.321 248.191 181.85 249.335C181.872 249.349 181.893 249.363 181.915 249.378ZM261.078 110.609L262.705 109.855C265.435 108.591 268.42 109.398 271.322 111.322C274.14 113.191 277.224 116.32 280.576 120.581C289.551 123.555 301.369 132.373 315.953 146.634C316.719 146.597 317.464 146.811 318.134 147.172C319.132 147.709 320.065 148.611 320.946 149.704C322.683 151.858 324.588 155.223 326.671 159.691L347.485 180.629L348.46 182.734L346.719 187.478L342.612 189.38C341.783 189.764 340.892 189.775 340.082 189.633C339.269 189.49 338.412 189.172 337.534 188.743C335.78 187.885 333.676 186.452 331.249 184.515C326.561 180.774 320.405 174.941 312.802 167.056C304.847 171.541 299.41 175.591 296.32 179.183C293.222 182.782 292.774 185.53 293.809 187.765L293.838 187.828L293.862 187.893C296.518 195.035 298.208 200.66 298.873 204.711C299.203 206.723 299.304 208.479 299.074 209.888C298.845 211.288 298.214 212.718 296.751 213.395L293.318 214.985C291.522 215.816 289.65 215.009 288.156 213.947C286.574 212.822 284.812 210.997 282.878 208.589L282.651 208.305L282.551 207.955C274.273 178.735 268.245 156.286 264.474 140.621C262.589 132.792 261.261 126.63 260.498 122.151C260.117 119.915 259.871 118.064 259.771 116.619C259.72 115.897 259.705 115.246 259.733 114.683C259.76 114.144 259.831 113.574 260.016 113.069L260.272 112.371L261.608 111.753L261.078 110.609ZM313.203 164.887C329.204 181.567 338.755 189.189 341.858 187.752L345.291 186.163L346.52 182.814L345.99 181.669L325.177 160.732C320.938 151.577 317.674 147.529 315.385 148.589C300.185 133.638 288.224 124.815 279.503 122.121C273.63 114.56 268.874 110.869 265.234 111.048C264.61 111.079 264.018 111.224 263.459 111.483L263.989 112.627L261.7 113.687C260.198 117.78 267.724 149.039 284.277 207.466C288.072 212.194 290.835 214.158 292.564 213.357L295.997 211.767C298.744 210.496 297.472 202.746 292.181 188.518C289.261 182.212 295.886 174.511 312.059 165.416L313.203 164.887ZM287.75 166.944L303.856 156.706L302.797 154.418C290.241 140.775 282.717 134.53 280.224 135.684L277.936 136.744L287.75 166.944ZM280.133 137.703L288.741 164.189L301.569 156.035L301.287 155.426C295.114 148.728 290.222 143.896 286.591 140.882C284.749 139.354 283.302 138.352 282.224 137.805C281.686 137.531 281.308 137.406 281.068 137.362C280.991 137.348 280.94 137.344 280.911 137.343L280.133 137.703ZM413.744 118.852L413.812 119.045C417.074 128.317 418.376 136.077 417.485 142.209C416.576 148.468 413.374 153 407.895 155.537C403.088 157.763 396.762 158.145 389.11 156.955C382.254 155.888 374.183 153.534 364.915 149.929L387.433 178.772L385.759 186.634L380.367 189.131C379.211 189.666 377.987 189.322 377.097 188.924C376.133 188.492 375.064 187.775 373.914 186.855C371.6 185.004 368.648 182.082 365.079 178.146C357.93 170.261 348.103 158.083 335.611 141.641L326.223 130.493L326.122 130.275C324.456 126.676 323.759 123.356 324.428 120.465C325.122 117.468 327.192 115.295 330.238 113.885C330.97 113.546 331.764 113.538 332.437 113.62C333.136 113.706 333.903 113.916 334.712 114.207C336.331 114.79 338.351 115.784 340.744 117.144C345.524 119.861 352.028 124.179 360.233 130.068C370.4 135.445 378.819 139.028 385.519 140.872C392.315 142.742 397.006 142.728 399.945 141.368C401.828 140.496 402.99 139.084 403.506 136.986C404.04 134.817 403.894 131.835 402.861 127.924L399.217 120.055C391.551 103.499 381.752 92.6292 369.925 87.1401L365.432 90.4231L360.21 92.8411L356.77 85.4103L356.74 85.3258C355.886 82.8624 355.407 80.7145 355.459 78.9778C355.512 77.1995 356.164 75.4739 357.935 74.6541L360.224 73.5943C367.172 70.3769 375.185 73.3508 383.827 80.8565C392.55 88.4322 402.484 101.084 413.635 118.68L413.744 118.852ZM369.71 85.0762C382.483 90.6506 392.861 102.059 400.845 119.301L404.554 127.312C406.765 135.554 405.479 140.782 400.698 142.996C393.628 146.269 379.824 142.469 359.286 131.596C342.813 119.767 333.382 114.405 330.992 115.512C325.651 117.985 324.57 122.655 327.75 129.521L337.012 140.52C362.005 173.42 376.206 189.081 379.614 187.503L384.191 185.383L385.505 179.216L361.597 148.593L361.067 147.449L362.211 146.919C362.453 147.018 362.694 147.116 362.934 147.213C383.807 155.659 398.543 157.891 407.142 153.91C416.907 149.388 418.567 137.965 412.12 119.64C389.876 84.5403 372.828 69.7344 360.977 75.2219L358.689 76.2817C356.858 77.1295 356.773 79.9483 358.435 84.7378L361.084 90.4599L364.518 88.8701L369.71 85.0762ZM431.907 41.2357L432.086 41.1529C435.171 39.7246 438.219 39.2027 441.178 39.7322C444.136 40.2615 446.828 41.8096 449.256 44.2191L449.705 44.6641L449.775 45.292C450.298 49.9409 449.298 53.8133 445.674 55.4915L445.607 55.5228L431.577 60.6519C424.802 66.4574 420.235 71.5603 417.734 75.9592C415.301 80.2388 414.945 83.6128 416.073 86.3263C416.373 86.4004 416.908 86.4534 417.755 86.4186C419.463 86.3486 422.001 85.9449 425.426 85.1623C432.25 83.6032 442.257 80.6213 455.479 76.1955L455.92 76.0479L456.378 76.1332C465.896 77.9095 472.574 82.3049 475.924 89.5397L476.026 89.7594L476.066 89.9982C477.817 100.492 477.48 109.345 474.876 116.439C472.25 123.595 467.36 128.837 460.303 132.104L447.714 137.933C442.272 140.453 437.571 141.697 433.731 141.368C429.719 141.024 426.758 138.964 425.072 135.323C424.318 133.695 424.569 131.804 425.249 129.952C425.942 128.062 427.197 125.896 428.928 123.479L429.485 122.702L441.292 123.056L448.919 119.525C455.816 116.331 460.077 109.945 461.452 99.8382L458.548 93.5646C458.526 93.5551 458.498 93.5437 458.461 93.5308C458.2 93.4399 457.717 93.3561 456.925 93.3635C455.349 93.3784 453.006 93.745 449.826 94.5316C443.497 96.0969 434.272 99.2163 422.11 103.923L421.804 104.041L421.475 104.043C410.899 104.118 403.407 100.54 399.828 92.8107C398.101 89.0811 398.69 84.0339 400.878 78.0713C403.098 72.0242 407.115 64.6279 412.862 55.9093L413.03 55.6556L431.907 41.2357ZM463.298 99.5555C461.945 110.374 457.403 117.573 449.672 121.152L441.661 124.862L430.387 124.523C427.01 129.237 425.781 132.586 426.7 134.569C429.526 140.673 436.279 141.252 446.96 136.306L459.549 130.477C472.824 124.33 477.74 110.935 474.297 90.2933C471.259 83.732 465.176 79.5997 456.049 77.8964C429.576 86.7569 415.751 89.9156 414.574 87.3725C411.347 80.4043 416.709 70.973 430.658 59.0783L444.921 53.8639C447.464 52.6863 448.488 49.8958 447.993 45.4923C443.536 41.0702 438.485 40.1663 432.84 42.7805L414.36 56.8965C402.931 74.2334 398.629 85.9536 401.455 92.0571C404.635 98.9235 411.304 102.321 421.463 102.25C445.82 92.8242 458.706 89.6373 460.119 92.6891L463.298 99.5555ZM499.674 89.8152L500.167 89.587C502.782 88.3763 505.438 88.2823 507.992 89.4181C510.465 90.5172 512.667 92.6892 514.66 95.6616L514.913 96.0387L514.956 96.4907C515.567 102.909 514.166 107.904 509.623 110.008L509.355 110.133L509.061 110.164C504.99 110.602 501.347 109.65 498.255 107.256L497.909 106.989L497.196 105.447C495.077 100.873 496.062 95.718 499.391 90.2784L499.674 89.8152ZM513.171 96.6605C509.378 91.0045 505.295 89.1892 500.92 91.2146C497.756 96.386 497.057 100.879 498.823 104.694L499.353 105.838C502.049 107.925 505.221 108.773 508.869 108.381C512.328 106.779 513.762 102.873 513.171 96.6605Z" fill="url(#paint0_linear_517_761)"/>
</g>
<defs>
<linearGradient id="paint0_linear_517_761" x1="342.787" y1="227.814" x2="298.287" y2="132.251" gradientUnits="userSpaceOnUse">
<stop stop-color="#EEF2F7"/>
<stop offset="1" stop-color="#E5ECF0"/>
</linearGradient>
</defs>
</svg>
