<svg width="211" height="64" viewBox="0 0 211 64" fill="none" xmlns="http://www.w3.org/2000/svg">
<g clip-path="url(#clip0_610_11477)">
<circle cx="30.8833" cy="29.2148" r="23.9827" fill="white"/>
<path d="M38.9732 23.2904C38.9732 25.2085 37.3507 26.7634 35.3492 26.7634C33.3477 26.7634 31.7252 25.2085 31.7252 23.2904C31.7252 21.3723 33.3477 19.8174 35.3492 19.8174C37.3507 19.8174 38.9732 21.3723 38.9732 23.2904Z" fill="#2C2C2C"/>
<path d="M23.27 39.901C23.27 41.819 21.7151 43.374 19.797 43.374C17.8789 43.374 16.324 41.819 16.324 39.901C16.324 37.9829 17.8789 36.4279 19.797 36.4279C21.7151 36.4279 23.27 37.9829 23.27 39.901Z" fill="#2C2C2C"/>
<path d="M16.6178 21.2138C18.562 21.0734 20.2519 22.5357 20.3922 24.48C20.5326 26.4242 19.0703 28.1141 17.126 28.2544C15.1818 28.3948 13.4919 26.9325 13.3516 24.9882C13.2112 23.044 14.6736 21.3541 16.6178 21.2138Z" fill="#2C2C2C"/>
<path d="M48.9388 28.7264C48.9388 30.6444 47.3839 32.1994 45.4658 32.1994C43.5477 32.1994 41.9928 30.6444 41.9928 28.7264C41.9928 26.8083 43.5477 25.2533 45.4658 25.2533C47.3839 25.2533 48.9388 26.8083 48.9388 28.7264Z" fill="#2C2C2C"/>
<path d="M33.5379 45.6385C33.5379 47.5566 31.9154 49.1115 29.9139 49.1115C27.9124 49.1115 26.2899 47.5566 26.2899 45.6385C26.2899 43.7204 27.9124 42.1655 29.9139 42.1655C31.9154 42.1655 33.5379 43.7204 33.5379 45.6385Z" fill="#2C2C2C"/>
<path d="M21.4516 10.8098C23.3959 10.6695 25.0858 12.1318 25.2261 14.076C25.3665 16.0203 23.9041 17.7102 21.9599 17.8505C20.0157 17.9909 18.3258 16.5285 18.1854 14.5843C18.0451 12.6401 19.5074 10.9502 21.4516 10.8098Z" fill="#2C2C2C"/>
<path fill-rule="evenodd" clip-rule="evenodd" d="M38.9743 38.8916C45.8891 38.8916 51.4287 33.3578 51.4287 26.6126C51.4287 19.8674 45.8891 14.3336 38.9743 14.3336L38.9743 9.54957C48.4449 9.54957 56.1884 17.1526 56.1884 26.6126C56.1884 36.0726 48.4449 43.6757 38.9743 43.6757L38.9743 38.8916Z" fill="#2C2C2C"/>
<path fill-rule="evenodd" clip-rule="evenodd" d="M23.2703 56.3234C30.1851 56.3234 35.7247 50.6916 35.7247 43.827C35.7247 36.9625 30.1851 31.3307 23.2703 31.3307L23.2703 26.462C32.741 26.462 40.4844 34.1996 40.4844 43.827C40.4844 53.4545 32.7409 61.1921 23.2703 61.1921L23.2703 56.3234Z" fill="#2C2C2C"/>
<path fill-rule="evenodd" clip-rule="evenodd" d="M27.1919 9.2751C21.2771 5.69914 13.6886 7.5485 10.2146 13.2946C6.74064 19.0406 8.62894 26.6196 14.5437 30.1955L12.0797 34.2709C3.97884 29.3732 1.27116 18.8919 6.14337 10.8331C11.0156 2.7744 21.5549 0.301999 29.6558 5.19969L27.1919 9.2751Z" fill="#2C2C2C"/>
</g>
<path d="M67.9562 25H72.6962V16.21H80.6162V12.13H72.6962V8.05H82.5362V4H67.9562V25ZM88.2214 25.24C92.8414 25.24 96.2014 21.94 96.2014 17.44C96.2014 12.94 92.8414 9.64 88.2214 9.64C83.5414 9.64 80.2414 12.94 80.2414 17.44C80.2414 21.94 83.5414 25.24 88.2214 25.24ZM88.2214 21.49C86.0614 21.49 84.6214 19.84 84.6214 17.44C84.6214 15.04 86.0614 13.39 88.2214 13.39C90.3514 13.39 91.7914 15.04 91.7914 17.44C91.7914 19.84 90.3514 21.49 88.2214 21.49ZM106.633 14.11L106.903 9.88C106.483 9.73 105.793 9.64 105.283 9.64C103.483 9.64 101.533 10.87 100.843 12.49V9.88H96.4332V25H100.843V19.54C100.843 15.25 102.733 13.75 104.713 13.75C105.403 13.75 106.123 13.87 106.633 14.11ZM119.803 4V12.16H111.463V4H106.723V25H111.463V16.21H119.803V25H124.573V4H119.803ZM140.344 9.88H135.964V16.51C135.964 19.63 134.854 21.34 132.754 21.34C131.194 21.34 130.174 20.23 130.174 18.58V9.88H125.764V19.75C125.764 23.08 128.014 25.24 131.344 25.24C133.384 25.24 135.034 24.31 135.964 22.99V25H140.344V9.88ZM141.382 25H145.792V17.26C145.792 14.86 146.842 13.33 148.642 13.33C150.172 13.33 151.072 14.35 151.072 16V25H155.422V17.26C155.422 14.83 156.472 13.33 158.302 13.33C159.862 13.33 160.762 14.35 160.762 16V25H165.142V14.71C165.142 11.83 162.982 9.64 159.712 9.64C157.252 9.64 155.422 10.9 154.612 12.34C153.862 10.6 152.392 9.64 150.052 9.64C148.042 9.64 146.662 10.57 145.792 11.92V9.88H141.382V25ZM172.079 9.64C168.839 9.64 166.079 11.56 165.599 14.53L169.439 15.25C169.589 13.78 170.639 12.91 172.079 12.91C173.699 12.91 174.719 13.81 174.719 15.31V15.4L171.989 15.67C167.639 16.12 165.449 17.74 165.449 20.74C165.449 23.26 167.519 25.24 170.459 25.24C172.139 25.24 173.849 24.4 174.719 23.08V25H178.979V16.03C178.979 11.77 176.189 9.64 172.079 9.64ZM171.539 22.09C170.309 22.09 169.649 21.43 169.649 20.59C169.649 19.72 170.399 18.97 171.899 18.82L174.719 18.49V18.61V18.7V18.73C174.689 20.5 173.519 22.09 171.539 22.09ZM180 25H184.41V18.37C184.41 15.25 185.49 13.54 187.59 13.54C189.18 13.54 190.2 14.65 190.2 16.3V25H194.58V15.13C194.58 11.8 192.36 9.64 189.03 9.64C186.96 9.64 185.31 10.57 184.41 11.89V9.88H180V25ZM67.9562 50H75.1262C80.8862 50 86.0162 46.7 86.0162 39.5C86.0162 32.3 80.8862 29 75.1262 29H67.9562V50ZM72.6062 45.92V33.05H74.6162C78.0062 33.05 81.2462 34.64 81.2462 39.5C81.2462 44.36 78.0062 45.92 74.6162 45.92H72.6062ZM101.114 42.05C101.114 38.69 98.8041 34.64 93.3441 34.64C88.1241 34.64 85.8441 38.69 85.8441 42.44C85.8441 46.19 88.3941 50.24 93.6141 50.24C97.2141 50.24 99.9141 48.59 100.814 45.74L96.6741 44.63C96.3441 45.89 95.2341 46.58 93.7341 46.58C91.8741 46.58 90.6141 45.56 90.1941 43.7H101.054C101.084 43.37 101.114 42.65 101.114 42.05ZM90.2541 40.58C90.6741 38.81 91.7541 37.91 93.3441 37.91C95.2941 37.91 96.2541 39.05 96.4041 40.58H90.2541ZM106.945 50.24C110.485 50.24 112.885 48.02 112.885 45.41C112.885 39.29 104.755 41.27 104.755 38.87C104.755 38.21 105.445 37.79 106.435 37.79C107.455 37.79 108.685 38.42 109.075 39.8L112.615 38.33C111.925 36.14 109.375 34.64 106.285 34.64C102.955 34.64 100.885 36.62 100.885 38.99C100.885 44.72 108.895 43.13 108.895 45.5C108.895 46.34 108.115 46.91 106.945 46.91C105.265 46.91 104.095 45.74 103.735 44.33L100.195 45.71C100.975 47.99 103.255 50.24 106.945 50.24ZM115.463 32.87C116.993 32.87 118.163 31.7 118.163 30.23C118.163 28.79 116.993 27.62 115.463 27.62C113.963 27.62 112.853 28.79 112.853 30.23C112.853 31.7 113.963 32.87 115.463 32.87ZM113.273 50H117.683V34.88H113.273V50ZM129.045 34.88V36.17C128.235 35.24 126.855 34.64 125.085 34.64C120.885 34.64 118.245 37.52 118.245 42.08C118.245 46.64 120.885 49.52 125.175 49.52C126.825 49.52 128.295 48.95 129.075 47.96V49.4C129.075 51.08 127.725 52.25 125.655 52.25C124.185 52.25 122.895 51.53 122.685 50.3L118.665 50.93C119.205 53.78 122.115 55.7 125.655 55.7C130.305 55.7 133.395 52.97 133.395 48.92V34.88H129.045ZM125.895 45.77C123.855 45.77 122.535 44.33 122.535 42.08C122.535 39.83 123.855 38.39 125.895 38.39C127.965 38.39 129.285 39.83 129.285 42.08C129.285 44.33 127.965 45.77 125.895 45.77ZM134.737 50H139.147V43.37C139.147 40.25 140.227 38.54 142.327 38.54C143.917 38.54 144.937 39.65 144.937 41.3V50H149.317V40.13C149.317 36.8 147.097 34.64 143.767 34.64C141.697 34.64 140.047 35.57 139.147 36.89V34.88H134.737V50Z" fill="white"/>
<defs>
<clipPath id="clip0_610_11477">
<rect width="56.0661" height="64" fill="white"/>
</clipPath>
</defs>
</svg>
