<svg width="337" height="64" viewBox="0 0 337 64" fill="none" xmlns="http://www.w3.org/2000/svg">
<circle cx="30.8836" cy="29.2149" r="23.9827" fill="white"/>
<mask id="mask0_622_12521" style="mask-type:alpha" maskUnits="userSpaceOnUse" x="6" y="5" width="49" height="49">
<circle cx="30.8836" cy="29.2149" r="23.9827" fill="white"/>
</mask>
<g mask="url(#mask0_622_12521)">
<path d="M38.9736 23.2904C38.9736 25.2085 37.3511 26.7634 35.3496 26.7634C33.3481 26.7634 31.7256 25.2085 31.7256 23.2904C31.7256 21.3723 33.3481 19.8174 35.3496 19.8174C37.3511 19.8174 38.9736 21.3723 38.9736 23.2904Z" fill="#141313"/>
<path d="M23.2702 39.901C23.2702 41.8191 21.7153 43.374 19.7972 43.374C17.8791 43.374 16.3242 41.8191 16.3242 39.901C16.3242 37.9829 17.8791 36.428 19.7972 36.428C21.7153 36.428 23.2702 37.9829 23.2702 39.901Z" fill="#141313"/>
<path d="M16.618 21.2137C18.5623 21.0734 20.2521 22.5357 20.3925 24.4799C20.5328 26.4242 19.0705 28.1141 17.1263 28.2544C15.1821 28.3948 13.4922 26.9324 13.3518 24.9882C13.2115 23.044 14.6738 21.3541 16.618 21.2137Z" fill="#141313"/>
<path d="M48.9392 28.7264C48.9392 30.6445 47.3843 32.1994 45.4662 32.1994C43.5481 32.1994 41.9932 30.6445 41.9932 28.7264C41.9932 26.8083 43.5481 25.2534 45.4662 25.2534C47.3843 25.2534 48.9392 26.8083 48.9392 28.7264Z" fill="#141313"/>
<path d="M33.5381 45.6385C33.5381 47.5566 31.9155 49.1115 29.9141 49.1115C27.9126 49.1115 26.29 47.5566 26.29 45.6385C26.29 43.7204 27.9126 42.1655 29.9141 42.1655C31.9155 42.1655 33.5381 43.7204 33.5381 45.6385Z" fill="#141313"/>
<path d="M21.4515 10.8099C23.3957 10.6696 25.0856 12.1319 25.226 14.0761C25.3663 16.0204 23.904 17.7102 21.9598 17.8506C20.0156 17.991 18.3257 16.5286 18.1853 14.5844C18.045 12.6402 19.5073 10.9503 21.4515 10.8099Z" fill="#141313"/>
<path fill-rule="evenodd" clip-rule="evenodd" d="M38.9744 38.8917C45.8892 38.8917 51.4288 33.3579 51.4288 26.6127C51.4288 19.8675 45.8892 14.3337 38.9744 14.3337L38.9744 9.54968C48.4451 9.54969 56.1885 17.1527 56.1885 26.6127C56.1885 36.0727 48.4451 43.6758 38.9744 43.6758L38.9744 38.8917Z" fill="#141313"/>
<path fill-rule="evenodd" clip-rule="evenodd" d="M23.2703 56.3234C30.1851 56.3234 35.7247 50.6917 35.7247 43.8271C35.7247 36.9625 30.1851 31.3307 23.2703 31.3307L23.2703 26.462C32.741 26.462 40.4844 34.1997 40.4844 43.8271C40.4844 53.4545 32.7409 61.1921 23.2703 61.1921L23.2703 56.3234Z" fill="#141313"/>
<path fill-rule="evenodd" clip-rule="evenodd" d="M27.1921 9.27518C21.2774 5.69922 13.6889 7.54858 10.2149 13.2947C6.74088 19.0407 8.62919 26.6197 14.5439 30.1956L12.08 34.271C3.97908 29.3733 1.27141 18.892 6.14361 10.8332C11.0158 2.77448 21.5551 0.302083 29.656 5.19977L27.1921 9.27518Z" fill="#141313"/>
</g>
<path d="M68.89 39H73.63V30.21H81.55V26.13H73.63V22.05H83.47V18H68.89V39ZM89.1552 39.24C93.7752 39.24 97.1352 35.94 97.1352 31.44C97.1352 26.94 93.7752 23.64 89.1552 23.64C84.4752 23.64 81.1752 26.94 81.1752 31.44C81.1752 35.94 84.4752 39.24 89.1552 39.24ZM89.1552 35.49C86.9952 35.49 85.5552 33.84 85.5552 31.44C85.5552 29.04 86.9952 27.39 89.1552 27.39C91.2852 27.39 92.7252 29.04 92.7252 31.44C92.7252 33.84 91.2852 35.49 89.1552 35.49ZM107.567 28.11L107.837 23.88C107.417 23.73 106.727 23.64 106.217 23.64C104.417 23.64 102.467 24.87 101.777 26.49V23.88H97.367V39H101.777V33.54C101.777 29.25 103.667 27.75 105.647 27.75C106.337 27.75 107.057 27.87 107.567 28.11ZM120.737 18V26.16H112.397V18H107.657V39H112.397V30.21H120.737V39H125.507V18H120.737ZM141.278 23.88H136.898V30.51C136.898 33.63 135.788 35.34 133.688 35.34C132.128 35.34 131.108 34.23 131.108 32.58V23.88H126.698V33.75C126.698 37.08 128.948 39.24 132.278 39.24C134.318 39.24 135.968 38.31 136.898 36.99V39H141.278V23.88ZM142.315 39H146.725V31.26C146.725 28.86 147.775 27.33 149.575 27.33C151.105 27.33 152.005 28.35 152.005 30V39H156.355V31.26C156.355 28.83 157.405 27.33 159.235 27.33C160.795 27.33 161.695 28.35 161.695 30V39H166.075V28.71C166.075 25.83 163.915 23.64 160.645 23.64C158.185 23.64 156.355 24.9 155.545 26.34C154.795 24.6 153.325 23.64 150.985 23.64C148.975 23.64 147.595 24.57 146.725 25.92V23.88H142.315V39ZM173.013 23.64C169.773 23.64 167.013 25.56 166.533 28.53L170.373 29.25C170.523 27.78 171.573 26.91 173.013 26.91C174.633 26.91 175.653 27.81 175.653 29.31V29.4L172.923 29.67C168.573 30.12 166.383 31.74 166.383 34.74C166.383 37.26 168.453 39.24 171.393 39.24C173.073 39.24 174.783 38.4 175.653 37.08V39H179.913V30.03C179.913 25.77 177.123 23.64 173.013 23.64ZM172.473 36.09C171.243 36.09 170.583 35.43 170.583 34.59C170.583 33.72 171.333 32.97 172.833 32.82L175.653 32.49V32.61V32.7V32.73C175.623 34.5 174.453 36.09 172.473 36.09ZM180.933 39H185.343V32.37C185.343 29.25 186.423 27.54 188.523 27.54C190.113 27.54 191.133 28.65 191.133 30.3V39H195.513V29.13C195.513 25.8 193.293 23.64 189.963 23.64C187.893 23.64 186.243 24.57 185.343 25.89V23.88H180.933V39ZM201.479 39H208.649C214.409 39 219.539 35.7 219.539 28.5C219.539 21.3 214.409 18 208.649 18H201.479V39ZM206.129 34.92V22.05H208.139C211.529 22.05 214.769 23.64 214.769 28.5C214.769 33.36 211.529 34.92 208.139 34.92H206.129ZM234.337 31.05C234.337 27.69 232.027 23.64 226.567 23.64C221.347 23.64 219.067 27.69 219.067 31.44C219.067 35.19 221.617 39.24 226.837 39.24C230.437 39.24 233.137 37.59 234.037 34.74L229.897 33.63C229.567 34.89 228.457 35.58 226.957 35.58C225.097 35.58 223.837 34.56 223.417 32.7H234.277C234.307 32.37 234.337 31.65 234.337 31.05ZM223.477 29.58C223.897 27.81 224.977 26.91 226.567 26.91C228.517 26.91 229.477 28.05 229.627 29.58H223.477ZM239.868 39.24C243.408 39.24 245.808 37.02 245.808 34.41C245.808 28.29 237.678 30.27 237.678 27.87C237.678 27.21 238.368 26.79 239.358 26.79C240.378 26.79 241.608 27.42 241.998 28.8L245.538 27.33C244.848 25.14 242.298 23.64 239.208 23.64C235.878 23.64 233.808 25.62 233.808 27.99C233.808 33.72 241.818 32.13 241.818 34.5C241.818 35.34 241.038 35.91 239.868 35.91C238.188 35.91 237.018 34.74 236.658 33.33L233.118 34.71C233.898 36.99 236.178 39.24 239.868 39.24ZM248.086 21.87C249.616 21.87 250.786 20.7 250.786 19.23C250.786 17.79 249.616 16.62 248.086 16.62C246.586 16.62 245.476 17.79 245.476 19.23C245.476 20.7 246.586 21.87 248.086 21.87ZM245.896 39H250.306V23.88H245.896V39ZM261.369 23.88V25.17C260.559 24.24 259.179 23.64 257.409 23.64C253.209 23.64 250.569 26.52 250.569 31.08C250.569 35.64 253.209 38.52 257.499 38.52C259.149 38.52 260.619 37.95 261.399 36.96V38.4C261.399 40.08 260.049 41.25 257.979 41.25C256.509 41.25 255.219 40.53 255.009 39.3L250.989 39.93C251.529 42.78 254.439 44.7 257.979 44.7C262.629 44.7 265.719 41.97 265.719 37.92V23.88H261.369ZM258.219 34.77C256.179 34.77 254.859 33.33 254.859 31.08C254.859 28.83 256.179 27.39 258.219 27.39C260.289 27.39 261.609 28.83 261.609 31.08C261.609 33.33 260.289 34.77 258.219 34.77ZM266.76 39H271.17V32.37C271.17 29.25 272.25 27.54 274.35 27.54C275.94 27.54 276.96 28.65 276.96 30.3V39H281.34V29.13C281.34 25.8 279.12 23.64 275.79 23.64C273.72 23.64 272.07 24.57 271.17 25.89V23.88H266.76V39Z" fill="white"/>
</svg>
