<svg width="750" height="701" viewBox="0 0 750 701" fill="none" xmlns="http://www.w3.org/2000/svg">
<g opacity="0.5">
<path d="M762.189 542.925L761.182 542.074C762.443 542.055 763.822 541.374 764.99 539.992C767.763 536.712 767.256 532.75 763.696 529.74C760.136 526.73 756.144 526.891 753.313 530.24C752.224 531.529 751.698 533.053 751.957 534.315L750.832 533.365C749.52 532.256 749.498 530.429 750.864 528.813C751.835 527.665 753.248 527.133 754.347 527.781L756.509 524.227C753.927 522.767 750.507 523.772 748.171 526.536C745.101 530.167 745.193 534.381 748.356 537.054L759.318 546.322L762.189 542.925ZM755.765 533.278C757.112 531.685 759.108 531.605 760.864 533.09C762.621 534.575 762.874 536.556 761.528 538.149C760.161 539.765 758.166 539.845 756.409 538.36C754.652 536.875 754.399 534.894 755.765 533.278Z" fill="white"/>
<path d="M745.317 538.813L742.259 542.126L747.239 546.723C749.583 548.887 750.119 550.884 748.663 552.462C747.56 553.656 746.019 553.653 744.779 552.509L738.243 546.475L735.206 549.766L742.621 556.611C745.122 558.92 748.285 558.75 750.594 556.248C752.03 554.693 752.475 552.809 752.108 551.217L753.618 552.611L756.676 549.298L745.317 538.813Z" fill="white"/>
<path d="M726.548 558.466L723.314 561.608L731.478 570.013L728.948 572.47L731.555 575.154L734.085 572.697L734.769 573.401C735.709 574.369 735.736 575.497 734.856 576.352C734.504 576.694 734.067 576.948 733.521 577.178L735.823 579.988C736.543 579.673 737.223 579.184 737.861 578.565C740.281 576.214 740.653 572.987 738.067 570.325L737.319 569.555L739.058 567.867L736.45 565.183L734.712 566.871L726.548 558.466Z" fill="white"/>
<path d="M713.523 570.421C710.029 573.599 709.758 578.407 712.854 581.81C715.95 585.213 720.762 585.397 724.256 582.219C727.795 578.999 728.021 574.233 724.925 570.829C721.829 567.426 717.062 567.201 713.523 570.421ZM716.103 573.257C717.737 571.771 719.961 572.028 721.612 573.843C723.263 575.658 723.309 577.896 721.676 579.383C720.065 580.848 717.841 580.591 716.19 578.776C714.538 576.961 714.492 574.722 716.103 573.257Z" fill="white"/>
<path d="M705.012 592.835L707.593 596.316C708.02 596.156 708.618 595.771 709.016 595.434C710.422 594.246 711.132 591.999 710.602 590.278L712.324 592.316L715.768 589.405L705.788 577.6L702.344 580.511L705.948 584.774C708.78 588.123 708.294 590.542 706.748 591.849C706.21 592.304 705.568 592.686 705.012 592.835Z" fill="white"/>
<path d="M434.99 678.464L430.481 678.474L430.504 690.19L426.977 690.197L426.985 693.939L430.512 693.932L430.514 694.914C430.516 696.263 429.751 697.093 428.524 697.095C428.034 697.096 427.543 696.975 426.99 696.761L426.691 700.381C427.427 700.656 428.256 700.777 429.145 700.775C432.519 700.768 435.03 698.708 435.023 694.997L435.021 693.923L437.444 693.918L437.436 690.176L435.013 690.181L434.99 678.464Z" fill="white"/>
<path d="M417.316 677.999C412.595 677.854 409.058 681.121 408.917 685.72C408.775 690.318 412.105 693.796 416.827 693.941C421.609 694.088 425.085 690.819 425.227 686.221C425.368 681.622 422.099 678.146 417.316 677.999ZM417.199 681.831C419.406 681.899 420.826 683.631 420.75 686.083C420.675 688.536 419.152 690.177 416.944 690.109C414.768 690.042 413.348 688.311 413.423 685.858C413.499 683.406 415.022 681.765 417.199 681.831Z" fill="white"/>
<path d="M395.614 688.19L395.049 692.487C395.467 692.669 396.164 692.808 396.685 692.843C398.521 692.966 400.594 691.845 401.409 690.24L401.23 692.902L405.729 693.204L406.765 677.78L402.266 677.478L401.892 683.048C401.598 687.424 399.568 688.825 397.548 688.689C396.844 688.642 396.118 688.47 395.614 688.19Z" fill="white"/>
<path d="M694.324 606.995C696.967 604.998 698.035 601.73 696.595 599.012L693.019 600.792C693.803 602.083 693.483 603.44 692.308 604.328C690.987 605.326 689.6 605.221 688.675 603.997L688.62 603.924L690.68 602.021C693.951 598.973 694.739 596.301 692.89 593.854C691.336 591.799 688.427 591.46 686.029 593.272C684.659 594.307 683.782 596.047 683.886 597.66L682.702 596.093L679.228 598.719L684.757 606.036C687.383 609.511 690.971 609.529 694.324 606.995ZM687.09 596.507C688.093 595.749 689.038 595.88 689.556 596.565C690.093 597.275 689.943 598.349 688.812 599.396L686.715 601.404L686.641 601.306L686.586 601.232L686.567 601.208C685.501 599.746 685.475 597.727 687.09 596.507Z" fill="white"/>
<path d="M666.545 600.858L662.786 603.347L666.529 608.999C665.33 608.689 663.841 609.05 662.434 609.982C658.752 612.421 657.948 616.706 660.624 620.746C663.3 624.786 667.354 625.853 670.935 623.482C672.571 622.398 673.435 620.98 673.558 619.611L674.405 620.89L678.164 618.4L666.545 600.858ZM665.037 612.856C666.853 611.654 668.995 612.222 670.367 614.293C671.739 616.364 671.426 618.558 669.61 619.761C667.795 620.963 665.678 620.378 664.306 618.307C662.934 616.236 663.222 614.059 665.037 612.856Z" fill="white"/>
<path d="M649.054 636.739L652.893 634.433L649.403 628.622C647.76 625.888 647.833 623.805 649.673 622.699C651.04 621.878 652.519 622.314 653.387 623.76L657.968 631.385L661.833 629.063L656.636 620.413C654.883 617.494 651.774 616.785 648.856 618.539C647.068 619.613 646.111 621.296 645.991 622.943L644.933 621.181L641.094 623.487L649.054 636.739Z" fill="white"/>
<path d="M633.636 640.267L635.469 644.194C635.92 644.123 636.583 643.865 637.04 643.615C638.655 642.732 639.801 640.672 639.625 638.881L640.905 641.222L644.861 639.059L637.444 625.495L633.489 627.658L636.167 632.556C638.271 636.405 637.312 638.677 635.535 639.649C634.916 639.987 634.212 640.233 633.636 640.267Z" fill="white"/>
<path d="M623.728 626.613L619.695 628.628L622.725 634.692C621.573 634.239 620.05 634.417 618.541 635.171C614.59 637.145 613.272 641.301 615.439 645.636C617.605 649.971 621.5 651.522 625.341 649.603C627.097 648.725 628.126 647.422 628.415 646.078L629.1 647.45L633.134 645.435L623.728 626.613ZM620.776 638.34C622.724 637.367 624.782 638.19 625.892 640.413C627.003 642.635 626.426 644.775 624.478 645.748C622.53 646.722 620.5 645.884 619.39 643.662C618.279 641.439 618.828 639.313 620.776 638.34Z" fill="white"/>
<path d="M602.423 642.734C598.108 644.655 596.341 649.134 598.212 653.337C600.083 657.541 604.594 659.226 608.909 657.305C613.28 655.359 614.991 650.905 613.12 646.702C611.249 642.498 606.794 640.788 602.423 642.734ZM603.982 646.237C606 645.339 608.031 646.281 609.029 648.523C610.026 650.764 609.367 652.904 607.35 653.802C605.36 654.688 603.329 653.746 602.332 651.504C601.334 649.262 601.993 647.122 603.982 646.237Z" fill="white"/>
<path d="M587.649 648.946C584.29 650.294 582.858 653.314 583.851 655.79C586.181 661.598 593.142 656.624 594.055 658.902C594.306 659.528 593.811 660.189 592.872 660.566C591.904 660.954 590.497 660.825 589.602 659.664L586.802 662.406C588.29 664.221 591.281 664.674 594.213 663.498C597.373 662.231 598.584 659.564 597.682 657.315C595.501 651.878 588.505 656.435 587.603 654.186C587.283 653.389 587.807 652.551 588.917 652.106C590.511 651.467 592.067 652.132 592.945 653.333L595.779 650.676C594.171 648.809 591.151 647.542 587.649 648.946Z" fill="white"/>
<path d="M568.769 664.867C569.927 668.101 573.547 671.203 578.802 669.32C583.827 667.521 584.625 662.836 583.332 659.227C582.039 655.617 578.188 652.598 573.164 654.398C569.699 655.639 567.669 658.158 567.785 661.212L572.153 660.853C572.036 659.526 572.867 658.479 574.31 657.962C576.101 657.321 577.665 657.868 578.711 659.514L568.258 663.258C568.343 663.586 568.562 664.289 568.769 664.867ZM579.729 662.538C579.934 664.386 579.205 665.625 577.675 666.173C575.798 666.845 574.481 666.079 573.809 664.658L579.729 662.538Z" fill="white"/>
<path d="M560.371 658.708C558.94 659.167 558.176 660.603 558.626 662.005C559.084 663.436 560.54 664.162 561.972 663.703C563.403 663.245 564.167 661.808 563.708 660.377C563.259 658.975 561.803 658.25 560.371 658.708Z" fill="white"/>
<path d="M532.968 666.422C531.269 666.834 529.908 667.859 529.393 669.12L529.032 667.629L524.65 668.693L529.771 689.796L534.152 688.733L532.33 681.221C533.41 682.032 534.97 682.348 536.789 681.907C541.14 680.851 543.055 677.167 541.913 672.457C540.77 667.748 537.379 665.351 532.968 666.422ZM533.157 670.321C535.243 669.815 537.064 671.077 537.65 673.492C538.236 675.906 537.196 677.863 535.109 678.369C532.963 678.89 531.172 677.62 530.586 675.206C530 672.791 531.011 670.842 533.157 670.321Z" fill="white"/>
<path d="M507.976 680.299C508.632 683.671 511.742 687.284 517.221 686.217C522.46 685.197 523.957 680.687 523.224 676.924C522.491 673.16 519.141 669.594 513.902 670.614C510.289 671.317 507.902 673.501 507.556 676.537L511.928 676.842C512.012 675.513 512.992 674.604 514.497 674.311C516.364 673.947 517.827 674.725 518.612 676.509L507.714 678.631C507.748 678.968 507.859 679.697 507.976 680.299ZM519.162 679.652C519.086 681.51 518.178 682.625 516.582 682.935C514.625 683.316 513.439 682.36 512.99 680.854L519.162 679.652Z" fill="white"/>
<path d="M497.868 673.422C494.294 673.991 492.228 676.618 492.647 679.253C493.631 685.433 501.521 682.127 501.907 684.55C502.013 685.216 501.384 685.751 500.384 685.91C499.354 686.074 498.011 685.636 497.396 684.305L494.058 686.358C495.106 688.459 497.922 689.563 501.042 689.067C504.404 688.532 506.176 686.2 505.795 683.807C504.874 678.021 497.042 680.914 496.661 678.521C496.526 677.673 497.222 676.972 498.404 676.784C500.1 676.514 501.469 677.507 502.059 678.873L505.412 676.911C504.258 674.734 501.594 672.829 497.868 673.422Z" fill="white"/>
<path d="M489.604 692.529C488.053 692.734 487.023 694.076 487.219 695.566C487.412 697.026 488.754 698.055 490.305 697.851C491.825 697.651 492.794 696.316 492.602 694.857C492.405 693.367 491.124 692.329 489.604 692.529ZM489.536 674.873L485.066 675.462L487.085 690.788L491.555 690.199L489.536 674.873Z" fill="white"/>
<path d="M473.133 692.291L473.001 690.978C473.92 691.842 475.386 692.311 477.186 692.13C481.459 691.7 483.85 688.5 483.383 683.861C482.916 679.222 479.936 676.563 475.572 677.002C473.894 677.171 472.456 677.901 471.764 678.988L471.617 677.523C471.445 675.814 472.699 674.486 474.804 674.274C476.3 674.123 477.686 674.724 478.025 675.954L482.05 674.901C481.209 672.057 478.053 670.402 474.451 670.764C469.721 671.24 466.857 674.333 467.271 678.453L468.708 692.736L473.133 692.291ZM475.223 680.89C477.299 680.681 478.789 682.011 479.019 684.3C479.249 686.589 478.054 688.189 475.978 688.398C473.873 688.609 472.383 687.28 472.152 684.991C471.922 682.702 473.118 681.102 475.223 680.89Z" fill="white"/>
<path d="M464.021 677.549L459.52 677.81L459.912 684.577C460.096 687.761 459.095 689.571 456.951 689.695C455.329 689.789 454.222 688.716 454.124 687.032L453.61 678.152L449.139 678.411L449.723 688.485C449.92 691.884 452.313 693.958 455.712 693.761C457.825 693.638 459.454 692.591 460.295 691.191L460.414 693.242L464.915 692.982L464.021 677.549Z" fill="white"/>
<path d="M417.299 678.061C412.579 677.897 409.028 681.15 408.869 685.748C408.709 690.346 412.025 693.837 416.746 694.001C421.528 694.167 425.017 690.913 425.176 686.314C425.336 681.716 422.081 678.227 417.299 678.061ZM417.166 681.893C419.373 681.97 420.786 683.707 420.701 686.159C420.616 688.611 419.086 690.246 416.879 690.169C414.702 690.094 413.289 688.357 413.375 685.904C413.46 683.452 414.99 681.817 417.166 681.893Z" fill="white"/>
<path d="M395.568 688.14L394.976 692.433C395.393 692.618 396.09 692.761 396.61 692.799C398.446 692.934 400.526 691.826 401.351 690.226L401.156 692.887L405.652 693.217L406.784 677.8L402.288 677.47L401.879 683.037C401.558 687.412 399.518 688.8 397.499 688.651C396.796 688.6 396.07 688.423 395.568 688.14Z" fill="white"/>
<path d="M386.124 676.04L381.654 675.451L380.772 682.141C380.356 685.304 379.029 686.924 376.9 686.643C375.258 686.427 374.338 685.192 374.562 683.489L375.724 674.67L371.284 674.085L369.97 684.059C369.521 687.465 371.483 689.951 374.95 690.408C376.987 690.676 378.776 690.015 379.907 688.71L378.817 696.981L383.287 697.57L386.124 676.04Z" fill="white"/>
<path d="M350.084 686.142L354.495 686.913L355.663 680.236C356.212 677.094 357.632 675.567 359.747 675.937C361.318 676.212 362.149 677.51 361.859 679.171L360.326 687.933L364.767 688.71L366.506 678.77C367.093 675.416 365.207 672.845 361.854 672.258C359.799 671.898 357.974 672.544 356.804 673.71L357.158 671.686L352.747 670.914L350.084 686.142Z" fill="white"/>
<path d="M349.015 670.251L344.625 669.221L342.818 676.925C342.257 679.314 340.855 680.592 339.063 680.172C337.54 679.814 336.882 678.589 337.268 676.947L339.369 667.988L335.039 666.972L333.232 674.677C332.665 677.095 331.269 678.343 329.448 677.916C327.895 677.552 327.237 676.326 327.622 674.684L329.724 665.725L325.364 664.703L322.961 674.945C322.289 677.812 323.928 680.496 327.182 681.26C329.631 681.834 331.747 681.007 332.889 679.763C333.23 681.67 334.469 682.969 336.798 683.515C338.799 683.985 340.389 683.381 341.571 682.241L341.094 684.271L345.484 685.301L349.015 670.251Z" fill="white"/>
<path d="M311.7 676.99C314.88 677.916 318.138 676.821 319.459 674.043L315.896 672.238C315.328 673.638 314.049 674.192 312.635 673.78C311.045 673.316 310.301 672.141 310.73 670.669L310.756 670.58L313.513 671.096C317.912 671.899 320.525 670.935 321.383 667.991C322.104 665.517 320.638 662.982 317.753 662.14C316.103 661.66 314.185 661.995 312.953 663.042L313.502 661.157L309.321 659.939L306.755 668.743C305.536 672.925 307.665 675.814 311.7 676.99ZM315.791 664.923C316.999 665.275 317.458 666.112 317.217 666.937C316.968 667.79 316.018 668.312 314.503 668.03L311.64 667.547L311.674 667.43L311.7 667.341L311.709 667.312C312.245 665.583 313.848 664.357 315.791 664.923Z" fill="white"/>
<path d="M305.768 658.798L301.495 657.358L299.33 663.781C298.311 666.804 296.706 668.108 294.672 667.422C293.131 666.903 292.505 665.494 293.044 663.896L295.886 655.467L291.642 654.036L288.419 663.599C287.331 666.825 288.777 669.643 292.003 670.73C294.008 671.406 295.911 671.044 297.214 670.059L296.557 672.007L300.83 673.447L305.768 658.798Z" fill="white"/>
<path d="M283.741 650.736C280.362 649.439 277.258 650.679 276.302 653.17C274.059 659.012 282.545 660.1 281.666 662.391C281.424 663.021 280.612 663.169 279.667 662.807C278.693 662.433 277.75 661.381 277.883 659.921L273.965 660.027C273.822 662.37 275.706 664.736 278.656 665.868C281.834 667.088 284.536 665.957 285.404 663.694C287.503 658.225 279.275 656.808 280.143 654.546C280.451 653.744 281.404 653.486 282.521 653.914C284.124 654.53 284.813 656.075 284.64 657.553L288.524 657.533C288.615 655.071 287.263 652.088 283.741 650.736Z" fill="white"/>
<path d="M273.455 646.624C272.066 646.049 270.555 646.652 269.992 648.012C269.417 649.4 270.059 650.895 271.448 651.47C272.836 652.045 274.347 651.443 274.922 650.054C275.486 648.694 274.843 647.199 273.455 646.624Z" fill="white"/>
<path d="M254.718 638.296C253.14 637.544 251.437 637.48 250.242 638.133L250.902 636.749L246.832 634.809L237.488 654.411L241.558 656.351L244.884 649.374C245.21 650.685 246.221 651.915 247.91 652.72C251.952 654.647 255.763 652.997 257.848 648.623C259.934 644.248 258.816 640.249 254.718 638.296ZM252.404 641.44C254.342 642.364 254.958 644.493 253.889 646.735C252.82 648.978 250.778 649.84 248.84 648.916C246.847 647.965 246.258 645.85 247.327 643.607C248.396 641.365 250.41 640.49 252.404 641.44Z" fill="white"/>
<path d="M226.577 633.302C224.962 636.335 225.101 641.099 230.028 643.723C234.739 646.232 238.742 643.673 240.544 640.289C242.347 636.904 241.992 632.024 237.281 629.516C234.032 627.786 230.803 627.977 228.621 630.117L231.824 633.108C232.727 632.129 234.06 632.04 235.414 632.761C237.092 633.655 237.739 635.181 237.224 637.061L227.424 631.842C227.238 632.126 226.865 632.761 226.577 633.302ZM235.671 639.848C234.441 641.243 233.034 641.536 231.599 640.772C229.84 639.835 229.521 638.345 230.121 636.892L235.671 639.848Z" fill="white"/>
<path d="M223.149 621.623C220.019 619.805 216.758 620.535 215.417 622.843C212.275 628.253 220.479 630.678 219.246 632.8C218.908 633.383 218.082 633.4 217.207 632.892C216.305 632.368 215.541 631.179 215.905 629.759L212.02 629.241C211.506 631.531 212.99 634.167 215.722 635.754C218.666 637.464 221.512 636.776 222.73 634.681C225.672 629.615 217.774 626.908 218.991 624.812C219.422 624.07 220.405 623.966 221.439 624.567C222.924 625.43 223.358 627.065 222.952 628.496L226.79 629.094C227.272 626.678 226.411 623.518 223.149 621.623Z" fill="white"/>
<path d="M204.705 631.251C203.373 630.431 201.727 630.822 200.939 632.102C200.167 633.356 200.558 635.002 201.89 635.822C203.196 636.626 204.79 636.203 205.562 634.949C206.35 633.669 206.011 632.055 204.705 631.251ZM215.795 617.513L211.956 615.148L203.85 628.311L207.689 630.676L215.795 617.513Z" fill="white"/>
<path d="M191.968 620.598L192.696 619.498C192.862 620.748 193.699 622.039 195.208 623.038C198.788 625.409 202.664 624.445 205.239 620.558C207.813 616.671 207.189 612.726 203.532 610.304C202.126 609.372 200.551 609.028 199.327 609.432L200.14 608.204C201.088 606.772 202.9 606.537 204.664 607.706C205.917 608.536 206.61 609.878 206.095 611.045L209.877 612.777C211.026 610.043 209.629 606.763 206.612 604.765C202.648 602.14 198.473 602.722 196.187 606.174L188.26 618.142L191.968 620.598ZM200.801 613.094C202.54 614.245 202.852 616.218 201.582 618.136C200.312 620.054 198.374 620.536 196.635 619.384C194.87 618.216 194.558 616.243 195.828 614.325C197.099 612.407 199.037 611.925 200.801 613.094Z" fill="white"/>
<path d="M194.373 603.546L190.717 600.907L186.749 606.403C184.882 608.99 182.964 609.761 181.223 608.505C179.905 607.553 179.723 606.023 180.711 604.655L185.917 597.442L182.286 594.821L176.38 603.004C174.387 605.764 174.935 608.883 177.695 610.876C179.411 612.115 181.336 612.331 182.872 611.775L181.669 613.442L185.325 616.081L194.373 603.546Z" fill="white"/>
<path d="M172.684 587.264L169.178 584.429L161.811 593.54L159.069 591.322L156.716 594.232L159.459 596.449L158.842 597.213C157.993 598.262 156.876 598.424 155.922 597.652C155.54 597.344 155.236 596.94 154.942 596.426L152.427 599.047C152.826 599.725 153.393 600.341 154.085 600.9C156.708 603.022 159.956 603.005 162.29 600.119L162.965 599.284L164.849 600.808L167.202 597.898L165.318 596.375L172.684 587.264Z" fill="white"/>
<path d="M159.031 575.525C155.469 572.423 150.663 572.712 147.641 576.182C144.62 579.652 144.996 584.452 148.558 587.554C152.167 590.696 156.927 590.367 159.948 586.897C162.969 583.427 162.64 578.667 159.031 575.525ZM156.514 578.416C158.179 579.867 158.182 582.106 156.571 583.956C154.96 585.807 152.742 586.112 151.076 584.662C149.434 583.232 149.431 580.993 151.042 579.143C152.653 577.292 154.871 576.986 156.514 578.416Z" fill="white"/>
<path d="M135.812 569.72L132.654 572.688C132.863 573.093 133.315 573.643 133.695 573.999C135.038 575.257 137.353 575.702 139 574.976L137.176 576.923L140.467 580.006L151.035 568.723L147.744 565.641L143.928 569.715C140.929 572.916 138.471 572.715 136.993 571.331C136.478 570.849 136.025 570.256 135.812 569.72Z" fill="white"/>
<path d="M135.277 553.458L132.136 550.224L123.731 558.387L121.273 555.857L118.589 558.465L121.047 560.995L120.343 561.679C119.375 562.619 118.247 562.646 117.392 561.766C117.05 561.414 116.796 560.976 116.565 560.431L113.755 562.732C114.07 563.453 114.559 564.132 115.179 564.77C117.53 567.191 120.756 567.563 123.418 564.977L124.188 564.229L125.877 565.967L128.561 563.36L126.873 561.622L135.277 553.458Z" fill="white"/>
<path d="M106.534 545.225L109.536 548.548L114.567 544.005C116.934 541.867 118.992 541.537 120.431 543.131C121.5 544.315 121.357 545.849 120.105 546.98L113.503 552.942L116.525 556.288L124.015 549.524C126.541 547.242 126.638 544.055 124.357 541.528C122.959 539.98 121.122 539.366 119.483 539.565L121.009 538.187L118.007 534.864L106.534 545.225Z" fill="white"/>
<path d="M115.479 531.888L112.606 528.413L107.382 532.732C104.924 534.765 102.873 535.028 101.504 533.373C100.469 532.12 100.679 530.593 101.979 529.518L108.834 523.851L105.981 520.399L98.2034 526.829C95.5795 528.999 95.3238 532.155 97.4933 534.779C98.8419 536.41 100.65 537.105 102.276 536.954L100.692 538.263L103.565 541.738L115.479 531.888Z" fill="white"/>
<path d="M102.634 515.586C101.715 514.397 100.104 514.169 98.9395 515.07C97.7505 515.989 97.5655 517.605 98.4847 518.794C99.4039 519.983 101.015 520.211 102.204 519.292C103.368 518.392 103.553 516.776 102.634 515.586Z" fill="white"/>
<path d="M85.8632 492.221C84.8978 490.763 83.4714 489.832 82.1105 489.777L83.3891 488.93L80.8993 485.171L62.7945 497.162L65.2842 500.921L71.7283 496.653C71.3331 497.945 71.5666 499.52 72.5997 501.079C75.0726 504.813 79.1883 505.361 83.2286 502.685C87.269 500.009 88.3699 496.006 85.8632 492.221ZM82.2602 493.724C83.4458 495.515 82.8779 497.657 80.8066 499.028C78.7353 500.4 76.5415 500.088 75.3559 498.297C74.1364 496.456 74.7212 494.34 76.7925 492.968C78.8639 491.596 81.0408 491.883 82.2602 493.724Z" fill="white"/>
<path d="M64.2797 473.45C61.3349 475.219 59.0015 479.376 61.8761 484.161C64.6243 488.736 69.3742 488.602 72.6609 486.628C75.9475 484.654 78.1545 480.286 75.4062 475.711C73.5109 472.556 70.6433 471.059 67.6716 471.77L68.8784 475.983C70.1565 475.609 71.3456 476.219 72.1353 477.533C73.1146 479.163 72.884 480.805 71.475 482.152L65.7574 472.634C65.4523 472.781 64.8055 473.134 64.2797 473.45ZM68.7089 483.742C66.9365 484.306 65.5791 483.833 64.742 482.44C63.7154 480.731 64.2091 479.289 65.471 478.352L68.7089 483.742Z" fill="white"/>
<path d="M67.4317 461.851C65.6836 458.682 62.5109 457.63 60.1744 458.919C54.6956 461.941 60.483 468.241 58.3345 469.427C57.7436 469.752 57.0269 469.342 56.538 468.456C56.0343 467.543 55.9909 466.131 57.0337 465.1L53.9695 462.657C52.3497 464.356 52.2661 467.38 53.7921 470.146C55.4366 473.127 58.2314 474.002 60.3531 472.832C65.4827 470.002 60.1037 463.617 62.2254 462.446C62.9774 462.031 63.8728 462.448 64.4506 463.496C65.2803 465 64.8106 466.625 63.7262 467.643L66.7098 470.131C68.3657 468.307 69.254 465.154 67.4317 461.851Z" fill="white"/>
<path d="M46.6727 460.669C45.9528 459.28 44.3403 458.769 43.006 459.46C41.6989 460.138 41.1873 461.75 41.9072 463.139C42.613 464.501 44.1973 464.958 45.5044 464.28C46.8387 463.588 47.3785 462.03 46.6727 460.669ZM63.2521 454.597L61.1772 450.594L47.4526 457.708L49.5276 461.711L63.2521 454.597Z" fill="white"/>
<path d="M41.4196 445.434L42.6081 444.862C42.1104 446.02 42.1695 447.558 42.9543 449.188C44.8165 453.057 48.6403 454.213 52.8413 452.191C57.0422 450.169 58.5249 446.46 56.6228 442.508C55.8912 440.988 54.7143 439.886 53.4564 439.606L54.7831 438.968C56.3308 438.223 58.0072 438.948 58.925 440.855C59.5768 442.209 59.4854 443.717 58.4454 444.456L60.8082 447.88C63.1944 446.119 63.6729 442.587 62.1034 439.325C60.0416 435.042 56.1565 433.405 52.4254 435.201L39.4909 441.426L41.4196 445.434ZM52.8488 443.507C53.7533 445.386 53.012 447.241 50.9391 448.239C48.8663 449.236 46.9544 448.659 46.0499 446.779C45.1321 444.872 45.8735 443.018 47.9463 442.02C50.0191 441.023 51.931 441.6 52.8488 443.507Z" fill="white"/>
<path d="M51.9904 431.535L50.2185 427.388L43.9854 430.052C41.0521 431.306 39.0105 430.978 38.1668 429.003C37.5279 427.509 38.1616 426.104 39.7129 425.441L47.8922 421.945L46.1323 417.827L36.8531 421.793C33.7224 423.131 32.5836 426.086 33.9216 429.217C34.7533 431.163 36.2906 432.34 37.8932 432.656L36.0035 433.464L37.7754 437.61L51.9904 431.535Z" fill="white"/>
<path d="M41.6645 406.145L40.1282 401.906L29.1126 405.898L27.9107 402.582L24.3926 403.857L25.5945 407.173L24.6717 407.508C23.4029 407.968 22.363 407.529 21.945 406.375C21.7778 405.914 21.7259 405.411 21.7396 404.819L18.2324 405.763C18.2237 406.55 18.3905 407.37 18.6936 408.206C19.8432 411.378 22.6323 413.043 26.1215 411.778L27.1308 411.412L27.9565 413.69L31.4745 412.415L30.6489 410.137L41.6645 406.145Z" fill="white"/>
<path d="M36.2158 389.661C34.7577 385.168 30.4881 382.942 26.1119 384.363C21.7358 385.783 19.5871 390.092 21.0452 394.585C22.5222 399.136 26.7729 401.304 31.149 399.883C35.5251 398.463 37.6928 394.212 36.2158 389.661ZM32.569 390.845C33.2507 392.945 32.1006 394.866 29.7667 395.624C27.4327 396.381 25.3737 395.502 24.692 393.401C24.0197 391.33 25.1698 389.409 27.5038 388.651C29.8377 387.894 31.8967 388.773 32.569 390.845Z" fill="white"/>
<path d="M19.2363 372.521L15 373.434C14.9695 373.888 15.0732 374.592 15.2153 375.094C15.7168 376.865 17.4701 378.44 19.256 378.668L16.6885 379.395L17.9172 383.733L32.7909 379.52L31.5622 375.182L26.1911 376.703C21.971 377.899 19.9688 376.457 19.4172 374.51C19.2249 373.831 19.1424 373.089 19.2363 372.521Z" fill="white"/>
<path d="M10.8807 357.659C11.6128 360.89 14.1508 363.208 17.2207 363.016L17.0711 359.024C15.5714 359.207 14.4667 358.356 14.1414 356.921C13.7753 355.305 14.4423 354.085 15.938 353.746L16.0277 353.726L16.9138 356.387C18.3453 360.623 20.4554 362.44 23.4468 361.762C25.9596 361.193 27.4662 358.682 26.802 355.75C26.4224 354.075 25.1985 352.56 23.6857 351.99L25.6002 351.557L24.6377 347.309L15.6935 349.335C11.4457 350.298 9.95216 353.561 10.8807 357.659ZM23.417 355.385C23.6949 356.611 23.1859 357.419 22.3483 357.608C21.4808 357.805 20.5635 357.227 20.0751 355.765L19.1089 353.027L19.2285 353L19.3183 352.98L19.3482 352.973C21.1199 352.603 22.9697 353.411 23.417 355.385Z" fill="white"/>
<path d="M27.7237 334.079L27.0149 329.626L20.3207 330.692C21.0992 329.729 21.3875 328.224 21.1224 326.558C20.428 322.196 16.861 319.689 12.0751 320.451C7.28915 321.213 4.63825 324.461 5.31328 328.702C5.62186 330.64 6.55481 332.014 7.74999 332.693L6.23545 332.934L6.94423 337.387L27.7237 334.079ZM17.4276 327.736C17.77 329.887 16.3657 331.601 13.9121 331.992C11.4586 332.382 9.59143 331.189 9.2491 329.038C8.90676 326.887 10.3159 325.203 12.7694 324.813C15.223 324.422 17.0853 325.585 17.4276 327.736Z" fill="white"/>
<path d="M2.38662 304.386L2.90328 308.835L9.63655 308.053C12.8052 307.685 14.6727 308.61 14.9204 310.743C15.1045 312.327 14.0975 313.494 12.4218 313.689L3.58625 314.715L4.10645 319.194L14.1302 318.029C17.5121 317.637 19.4403 315.097 19.0475 311.715C18.8069 309.643 17.6678 308.077 16.2175 307.288L18.2588 307.051L17.7422 302.603L2.38662 304.386Z" fill="white"/>
<path d="M5.47671 288.854L1.14353 288.913C1.02372 289.353 0.986342 290.063 1.02653 290.583C1.16836 292.418 2.57583 294.309 4.28157 294.884L1.62103 295.09L1.96853 299.585L17.3813 298.394L17.0338 293.899L11.4681 294.329C7.09502 294.667 5.41704 292.858 5.26103 290.84C5.20666 290.137 5.27225 289.393 5.47671 288.854Z" fill="white"/>
<path d="M21.9552 285.076L21.7812 280.571L15.0077 280.832C15.8953 279.969 16.3607 278.508 16.2956 276.823C16.1252 272.409 12.8818 269.496 8.03918 269.683C3.19659 269.87 0.178057 272.779 0.343739 277.07C0.419479 279.032 1.1824 280.506 2.28826 281.323L0.755799 281.382L0.929765 285.888L21.9552 285.076ZM12.4869 277.553C12.5709 279.729 10.9727 281.264 8.49008 281.36C6.00748 281.456 4.29561 280.049 4.21159 277.873C4.12756 275.696 5.72701 274.192 8.2096 274.096C10.6922 274 12.4029 275.377 12.4869 277.553Z" fill="white"/>
<path d="M16.012 257.738C16.0485 253.015 12.7012 249.554 8.1005 249.518C3.49981 249.483 0.099455 252.892 0.0629882 257.615C0.0260477 262.4 3.37384 265.8 7.97452 265.835C12.5752 265.871 15.9751 262.523 16.012 257.738ZM12.1781 257.709C12.1611 259.917 10.4628 261.376 8.00909 261.357C5.5554 261.338 3.87984 259.853 3.89689 257.645C3.91371 255.467 5.61199 254.008 8.06569 254.027C10.5194 254.046 12.1949 255.531 12.1781 257.709Z" fill="white"/>
<path d="M16.4584 241.221C16.626 237.605 14.4723 235.049 11.8066 234.925C5.55623 234.636 7.19364 243.033 4.7425 242.919C4.06843 242.888 3.67214 242.163 3.719 241.152C3.76727 240.11 4.46891 238.884 5.89678 238.551L4.56299 234.866C2.29367 235.467 0.64102 238 0.494774 241.156C0.33717 244.557 2.26139 246.765 4.68189 246.877C10.534 247.148 9.28921 238.893 11.7097 239.005C12.5676 239.044 13.1128 239.868 13.0575 241.063C12.978 242.779 11.7277 243.918 10.2706 244.219L11.5124 247.9C13.8779 247.211 16.2838 244.989 16.4584 241.221Z" fill="white"/>
<path d="M9.79837 217.052C6.37545 216.761 2.04945 218.763 1.57636 224.325C1.12407 229.643 5.05236 232.317 8.87258 232.642C12.6928 232.967 17.0396 230.72 17.4919 225.402C17.8038 221.735 16.3569 218.841 13.5315 217.677L12.042 221.799C13.297 222.244 13.9037 223.435 13.7738 224.963C13.6126 226.857 12.4643 228.053 10.5331 228.319L11.4741 217.256C11.1405 217.197 10.4096 217.104 9.79837 217.052ZM7.35986 227.988C5.59311 227.407 4.76983 226.228 4.9076 224.609C5.07656 222.622 6.32109 221.743 7.89274 221.723L7.35986 227.988Z" fill="white"/>
<path d="M18.7761 212.544C18.9495 211.051 17.9567 209.762 16.4942 209.592C15.0013 209.419 13.7396 210.446 13.5662 211.939C13.3928 213.432 14.3856 214.72 15.8785 214.894C17.3409 215.063 18.6027 214.037 18.7761 212.544Z" fill="white"/>
<path d="M23.1223 183.745C23.4499 182.027 23.0801 180.364 22.1449 179.374L23.6513 179.662L24.4961 175.233L3.16478 171.164L2.32002 175.593L9.91252 177.041C8.72723 177.689 7.7943 178.979 7.44375 180.817C6.60473 185.216 9.16643 188.483 13.9268 189.391C18.6872 190.299 22.2718 188.204 23.1223 183.745ZM19.4941 182.303C19.0918 184.412 17.189 185.548 14.7486 185.083C12.3081 184.617 10.957 182.861 11.3593 180.752C11.773 178.582 13.6701 177.477 16.1106 177.942C18.551 178.408 19.9079 180.134 19.4941 182.303Z" fill="white"/>
<path d="M20.4987 156.391C17.1543 155.606 12.5835 156.96 11.3085 162.394C10.0896 167.59 13.5884 170.805 17.3211 171.681C21.0538 172.557 25.6805 170.964 26.8995 165.768C27.7402 162.185 26.7283 159.112 24.1016 157.551L22.03 161.413C23.2071 162.035 23.6347 163.301 23.2844 164.794C22.8501 166.646 21.5406 167.662 19.5911 167.645L22.1271 156.836C21.8056 156.729 21.096 156.531 20.4987 156.391ZM16.4995 166.857C14.8358 166.026 14.1921 164.741 14.5634 163.158C15.0188 161.217 16.3777 160.528 17.9356 160.736L16.4995 166.857Z" fill="white"/>
<path d="M30.8473 150.209C31.8073 146.719 30.2696 143.751 27.6967 143.044C21.6636 141.384 21.411 149.936 19.0451 149.285C18.3944 149.106 18.1675 148.312 18.436 147.336C18.7125 146.33 19.6671 145.289 21.1333 145.278L20.6441 141.39C18.2981 141.476 16.1279 143.583 15.29 146.629C14.3871 149.912 15.7776 152.49 18.114 153.132C23.7625 154.686 24.3671 146.359 26.7035 147.001C27.5315 147.229 27.8819 148.153 27.5647 149.306C27.1091 150.962 25.6385 151.798 24.1509 151.771L24.5514 155.635C27.0105 155.484 29.8468 153.847 30.8473 150.209Z" fill="white"/>
<path d="M16.8332 134.722C17.2879 133.225 16.491 131.733 15.053 131.296C13.6443 130.868 12.152 131.665 11.6973 133.162C11.2515 134.629 12.0662 136.063 13.4749 136.49C14.9129 136.927 16.3874 136.189 16.8332 134.722ZM32.9399 141.955L34.2505 137.641L19.4592 133.147L18.1486 137.462L32.9399 141.955Z" fill="white"/>
<path d="M24.3219 118.327L25.5701 118.753C24.4028 119.23 23.3665 120.367 22.782 122.079C21.395 126.143 23.3099 129.649 27.7222 131.155C32.1344 132.661 35.793 131.057 37.2097 126.906C37.7545 125.31 37.6884 123.699 36.9881 122.617L38.3814 123.093C40.007 123.648 40.6933 125.34 40.0097 127.343C39.5243 128.766 38.4016 129.776 37.1421 129.573L36.4242 133.671C39.3602 134.09 42.1789 131.908 43.348 128.483C44.8835 123.983 43.2624 120.092 39.3436 118.754L25.7584 114.118L24.3219 118.327ZM33.8189 124.971C33.1452 126.945 31.316 127.747 29.1389 127.004C26.9618 126.261 26.0043 124.508 26.678 122.534C27.3616 120.531 29.1908 119.729 31.3679 120.472C33.545 121.215 34.5025 122.968 33.8189 124.971Z" fill="white"/>
<path d="M41.1104 117.102L42.7417 112.898L36.4225 110.446C33.4487 109.292 32.2183 107.63 32.9952 105.628C33.5833 104.113 35.0187 103.551 36.5913 104.161L44.8836 107.38L46.5039 103.205L37.0964 99.5538C33.9225 98.322 31.0425 99.6389 29.8106 102.813C29.0449 104.786 29.3209 106.703 30.2461 108.049L28.3303 107.305L26.699 111.508L41.1104 117.102Z" fill="white"/>
<path d="M51.5761 91.4328L53.4402 87.3274L42.7719 82.483L44.2302 79.2713L40.8231 77.7242L39.3647 80.9359L38.471 80.53C37.2422 79.9721 36.8052 78.9315 37.3124 77.8143C37.5153 77.3675 37.8299 76.9714 38.2537 76.5575L35.0851 74.7818C34.5293 75.3379 34.0752 76.0412 33.7075 76.8511C32.3125 79.9232 33.1438 83.0629 36.523 84.5974L37.5005 85.0412L36.4986 87.2475L39.9058 88.7947L40.9077 86.5884L51.5761 91.4328Z" fill="white"/>
<path d="M58.8142 76.5938C60.9099 72.3606 59.4104 67.785 55.2872 65.7438C51.164 63.7025 46.6162 65.2842 44.5205 69.5174C42.3976 73.8055 43.9243 78.3261 48.0475 80.3674C52.1707 82.4087 56.6913 80.8819 58.8142 76.5938ZM55.3782 74.8927C54.3984 76.8719 52.2334 77.4428 50.0344 76.3541C47.8353 75.2655 46.9767 73.1976 47.9565 71.2185C48.9227 69.2668 51.0877 68.6958 53.2868 69.7845C55.4858 70.8732 56.3444 72.9411 55.3782 74.8927Z" fill="white"/>
<path d="M58.5292 52.593L54.8586 50.2894C54.5191 50.5938 54.102 51.1702 53.8536 51.6286C52.9766 53.2465 53.1321 55.5986 54.2521 57.008L51.9061 55.7364L49.7575 59.7004L63.3481 67.067L65.4967 63.1031L60.589 60.4429C56.7329 58.3528 56.3055 55.9231 57.2701 54.1434C57.6063 53.5232 58.065 52.9345 58.5292 52.593Z" fill="white"/>
<path d="M73.9895 47.9425L76.3678 44.112L70.6351 40.5526C67.9251 38.8699 66.9962 36.9934 68.1287 35.1694C69.0024 33.7623 70.5068 33.4327 71.966 34.3387L79.5228 39.0307L81.885 35.2263L73.338 29.9195C70.4195 28.1074 67.3461 28.8708 65.5017 31.8414C64.4176 33.5872 64.2835 35.4896 65.0066 37.0578L57.9189 32.657L55.5405 36.4875L73.9895 47.9425Z" fill="white"/>
<path d="M79.2258 11.5321L76.6986 15.2289L82.2945 19.0544C84.9279 20.8546 85.7307 22.7781 84.519 24.5506C83.6189 25.8673 82.0935 26.0878 80.7009 25.1357L73.3578 20.1159L70.8132 23.8381L79.1438 29.533C81.9545 31.4544 85.0758 30.8016 86.9972 27.991C88.1743 26.2691 88.3413 24.3399 87.7638 22.7933L89.4603 23.9531L91.9876 20.2562L79.2258 11.5321Z" fill="white"/>
<path d="M93.7095 17.5571L96.4541 13.9799L90.1757 9.16289C88.2289 7.66924 87.6412 5.86532 88.7615 4.40522C89.7137 3.16414 91.1012 3.06889 92.4396 4.09577L99.7401 9.69694L102.447 6.16837L96.1689 1.35137C94.1978 -0.160949 93.6345 -1.9462 94.7734 -3.43063C95.7443 -4.69605 97.1318 -4.7913 98.4702 -3.76442L105.771 1.83675L108.497 -1.71615L100.15 -8.12016C97.8135 -9.91253 94.6928 -9.52337 92.6577 -6.87086C91.1267 -4.87539 91.0099 -2.60679 91.6739 -1.05356C89.7957 -1.52808 88.1021 -0.933127 86.6458 0.965C85.3949 2.59544 85.2904 4.29364 85.844 5.83953L84.1893 4.56993L81.4447 8.14717L93.7095 17.5571Z" fill="white"/>
</g>
</svg>
