<svg width="643" height="588" viewBox="0 0 643 588" fill="none" xmlns="http://www.w3.org/2000/svg">
<g opacity="0.5">
<path d="M631.973 262.149L631.904 266.657L643.619 266.838L643.565 270.365L647.306 270.423L647.361 266.896L648.342 266.911C649.691 266.932 650.508 267.711 650.489 268.938C650.481 269.429 650.351 269.917 650.128 270.466L653.742 270.829C654.029 270.097 654.165 269.271 654.178 268.381C654.23 265.008 652.214 262.461 648.504 262.404L647.43 262.387L647.468 259.965L643.726 259.907L643.689 262.33L631.973 262.149Z" fill="white"/>
<path d="M631.114 279.641C630.823 284.356 633.978 287.993 638.57 288.277C643.162 288.56 646.742 285.34 647.033 280.625C647.328 275.85 644.169 272.274 639.577 271.99C634.985 271.706 631.409 274.866 631.114 279.641ZM634.941 279.878C635.077 277.674 636.852 276.308 639.301 276.46C641.75 276.611 643.343 278.185 643.207 280.389C643.072 282.562 641.298 283.928 638.849 283.776C636.399 283.625 634.807 282.051 634.941 279.878Z" fill="white"/>
<path d="M640.468 301.648L644.735 302.404C644.935 301.995 645.105 301.304 645.163 300.786C645.369 298.957 644.341 296.835 642.774 295.949L645.426 296.247L645.929 291.767L630.567 290.042L630.064 294.523L635.611 295.145C639.97 295.635 641.278 297.726 641.053 299.738C640.974 300.439 640.77 301.157 640.468 301.648Z" fill="white"/>
<path d="M629.199 302.226L628.473 306.676L635.133 307.762C638.282 308.276 639.86 309.652 639.514 311.771C639.247 313.406 637.985 314.288 636.289 314.011L627.511 312.579L626.79 316.999L636.719 318.618C640.109 319.171 642.654 317.287 643.217 313.836C643.548 311.808 642.942 309.999 641.672 308.829L649.906 310.172L650.632 305.722L629.199 302.226Z" fill="white"/>
<path d="M638.149 337.468L639.122 333.097L632.506 331.624C629.392 330.931 627.932 329.443 628.398 327.348C628.745 325.791 630.079 325.019 631.726 325.386L640.408 327.318L641.388 322.917L631.538 320.725C628.215 319.985 625.559 321.751 624.82 325.074C624.366 327.11 624.928 328.963 626.039 330.185L624.033 329.738L623.06 334.109L638.149 337.468Z" fill="white"/>
<path d="M622.331 337.554L621.02 341.868L628.592 344.169C630.94 344.882 632.125 346.364 631.59 348.125C631.135 349.621 629.87 350.199 628.256 349.708L619.451 347.034L618.158 351.289L625.73 353.589C628.107 354.311 629.263 355.784 628.719 357.575C628.255 359.101 626.99 359.678 625.376 359.188L616.571 356.513L615.27 360.798L625.336 363.856C628.153 364.712 630.938 363.249 631.91 360.051C632.641 357.644 631.952 355.479 630.784 354.259C632.709 354.042 634.085 352.89 634.78 350.601C635.378 348.634 634.878 347.008 633.816 345.756L635.812 346.362L637.122 342.048L622.331 337.554Z" fill="white"/>
<path d="M626.678 374.604C627.865 371.512 627.043 368.174 624.384 366.628L622.29 370.029C623.639 370.711 624.084 372.032 623.557 373.406C622.963 374.953 621.731 375.597 620.299 375.047L620.213 375.014L620.955 372.309C622.119 367.992 621.375 365.309 618.512 364.209C616.106 363.286 613.458 364.537 612.381 367.343C611.766 368.947 611.941 370.887 612.882 372.201L611.05 371.497L609.489 375.563L618.051 378.85C622.117 380.41 625.172 378.527 626.678 374.604ZM614.992 369.528C615.443 368.354 616.315 367.966 617.116 368.273C617.947 368.592 618.388 369.583 617.982 371.069L617.263 373.882L617.149 373.838L617.063 373.805L617.034 373.794C615.356 373.117 614.267 371.418 614.992 369.528Z" fill="white"/>
<path d="M608.491 377.984L606.657 382.103L612.85 384.859C615.764 386.157 616.913 387.876 616.039 389.838C615.378 391.323 613.917 391.814 612.376 391.128L604.25 387.511L602.429 391.602L611.648 395.706C614.758 397.09 617.699 395.915 619.083 392.804C619.944 390.871 619.761 388.943 618.903 387.554L620.78 388.389L622.614 384.27L608.491 377.984Z" fill="white"/>
<path d="M594.475 406.35C593.631 407.881 593.466 409.577 594.048 410.808L592.705 410.068L590.527 414.016L609.542 424.505L611.72 420.557L604.952 416.823C606.28 416.575 607.567 415.639 608.471 414C610.634 410.079 609.213 406.178 604.969 403.837C600.726 401.496 596.668 402.375 594.475 406.35ZM597.477 408.847C598.514 406.967 600.675 406.478 602.851 407.678C605.026 408.878 605.765 410.967 604.728 412.847C603.662 414.78 601.515 415.243 599.34 414.043C597.164 412.843 596.41 410.78 597.477 408.847Z" fill="white"/>
<path d="M587.853 433.626C590.758 435.459 595.52 435.672 598.5 430.951C601.348 426.438 599.091 422.257 595.848 420.211C592.606 418.164 587.713 418.159 584.865 422.672C582.9 425.785 582.853 429.02 584.826 431.353L588.045 428.379C587.136 427.406 587.145 426.07 587.964 424.773C588.979 423.165 590.548 422.632 592.385 423.284L586.459 432.674C586.728 432.88 587.334 433.299 587.853 433.626ZM595.05 425.038C596.351 426.367 596.54 427.792 595.673 429.167C594.608 430.853 593.099 431.061 591.694 430.356L595.05 425.038Z" fill="white"/>
<path d="M576.386 435.383C574.311 438.348 574.763 441.66 576.95 443.19C582.076 446.778 585.183 438.807 587.194 440.214C587.747 440.601 587.694 441.425 587.114 442.254C586.516 443.109 585.267 443.77 583.882 443.287L583.038 447.114C585.277 447.82 588.029 446.563 589.84 443.975C591.792 441.186 591.347 438.291 589.362 436.902C584.562 433.543 581.198 441.184 579.213 439.795C578.51 439.303 578.489 438.315 579.175 437.335C580.16 435.928 581.826 435.634 583.218 436.159L584.137 432.384C581.77 431.701 578.549 432.292 576.386 435.383Z" fill="white"/>
<path d="M584.397 454.527C583.454 455.775 583.687 457.451 584.886 458.357C586.061 459.245 587.736 459.011 588.679 457.763C589.604 456.54 589.334 454.913 588.159 454.026C586.96 453.119 585.322 453.304 584.397 454.527ZM571.774 442.182L569.056 445.779L581.389 455.099L584.108 451.502L571.774 442.182Z" fill="white"/>
<path d="M572.77 465.859L571.751 465.022C573.011 464.985 574.38 464.284 575.528 462.885C578.253 459.565 577.689 455.611 574.085 452.653C570.481 449.696 566.492 449.914 563.71 453.305C562.64 454.609 562.137 456.14 562.413 457.399L561.275 456.465C559.947 455.375 559.898 453.549 561.241 451.913C562.194 450.751 563.6 450.199 564.709 450.831L566.818 447.245C564.215 445.823 560.81 446.878 558.514 449.675C555.498 453.351 555.652 457.563 558.853 460.19L569.949 469.297L572.77 465.859ZM566.207 456.306C567.53 454.694 569.524 454.584 571.302 456.044C573.081 457.503 573.362 459.48 572.039 461.093C570.697 462.729 568.702 462.838 566.924 461.378C565.146 459.919 564.864 457.942 566.207 456.306Z" fill="white"/>
<path d="M556.461 461.222L553.415 464.546L558.412 469.126C560.764 471.281 561.307 473.276 559.856 474.859C558.758 476.057 557.217 476.06 555.973 474.92L549.415 468.91L546.39 472.212L553.829 479.03C556.34 481.33 559.501 481.148 561.801 478.638C563.231 477.078 563.67 475.192 563.297 473.602L564.812 474.99L567.858 471.666L556.461 461.222Z" fill="white"/>
<path d="M538.268 480.171L534.988 483.265L543.029 491.787L540.464 494.208L543.031 496.93L545.597 494.509L546.271 495.223C547.197 496.205 547.207 497.333 546.315 498.175C545.958 498.512 545.517 498.76 544.968 498.982L547.229 501.825C547.954 501.521 548.64 501.042 549.287 500.432C551.741 498.116 552.16 494.895 549.613 492.196L548.877 491.415L550.639 489.752L548.071 487.03L546.309 488.693L538.268 480.171Z" fill="white"/>
<path d="M525.133 491.738C521.548 494.814 521.137 499.611 524.133 503.103C527.129 506.595 531.933 506.919 535.518 503.843C539.15 500.728 539.513 495.97 536.518 492.478C533.522 488.986 528.764 488.622 525.133 491.738ZM527.629 494.648C529.305 493.21 531.521 493.532 533.119 495.394C534.717 497.256 534.698 499.495 533.022 500.933C531.369 502.351 529.153 502.03 527.555 500.167C525.958 498.305 525.977 496.066 527.629 494.648Z" fill="white"/>
<path d="M516.375 513.401L518.815 516.983C519.248 516.84 519.861 516.479 520.273 516.159C521.725 515.028 522.525 512.811 522.063 511.07L523.703 513.176L527.26 510.405L517.761 498.209L514.204 500.98L517.634 505.384C520.33 508.844 519.747 511.241 518.15 512.485C517.594 512.919 516.938 513.274 516.375 513.401Z" fill="white"/>
<path d="M508.14 505.672L504.455 508.271L508.345 513.785C510.183 516.392 510.306 518.482 508.552 519.719C507.198 520.674 505.684 520.39 504.694 518.987L499.568 511.718L495.908 514.299L501.707 522.52C503.687 525.327 506.814 525.824 509.672 523.809C511.351 522.624 512.217 520.925 512.163 519.199L516.972 526.017L520.656 523.418L508.14 505.672Z" fill="white"/>
<path d="M488.572 537.07L492.385 534.722L488.83 528.95C487.158 526.234 487.207 524.15 489.035 523.024C490.393 522.188 491.877 522.607 492.761 524.044L497.425 531.618L501.265 529.253L495.973 520.661C494.188 517.762 491.071 517.088 488.172 518.873C486.396 519.967 485.458 521.661 485.356 523.309L484.279 521.559L480.466 523.907L488.572 537.07Z" fill="white"/>
<path d="M477.906 525.556L473.903 527.631L477.545 534.657C478.674 536.835 478.441 538.718 476.807 539.565C475.418 540.285 474.122 539.782 473.345 538.285L469.111 530.115L465.162 532.162L468.804 539.188C469.947 541.393 469.7 543.249 468.039 544.11C466.623 544.844 465.326 544.342 464.549 542.844L460.315 534.675L456.339 536.735L461.181 546.076C462.536 548.69 465.527 549.661 468.495 548.123C470.728 546.965 471.796 544.961 471.854 543.273C473.353 544.499 475.139 544.679 477.263 543.578C479.088 542.632 479.903 541.139 480.058 539.504L481.017 541.356L485.02 539.281L477.906 525.556Z" fill="white"/>
<path d="M454.586 554.482C457.627 553.169 459.439 550.248 458.686 547.266L454.79 548.146C455.245 549.587 454.612 550.829 453.26 551.413C451.74 552.069 450.418 551.638 449.81 550.23L449.773 550.146L452.226 548.786C456.127 546.6 457.526 544.192 456.31 541.376C455.289 539.011 452.543 537.991 449.784 539.183C448.207 539.864 446.942 541.345 446.66 542.937L445.882 541.135L441.884 542.861L445.519 551.281C447.246 555.279 450.728 556.148 454.586 554.482ZM450.047 542.577C451.201 542.079 452.088 542.431 452.429 543.219C452.781 544.036 452.381 545.044 451.034 545.793L448.521 547.245L448.472 547.133L448.436 547.048L448.423 547.02C447.734 545.346 448.188 543.38 450.047 542.577Z" fill="white"/>
<path d="M439.042 543.994L434.815 545.562L437.172 551.918C438.282 554.909 437.855 556.932 435.842 557.678C434.317 558.244 432.945 557.543 432.358 555.961L429.265 547.621L425.066 549.179L428.576 558.64C429.76 561.832 432.656 563.113 435.848 561.929C437.832 561.193 439.083 559.715 439.477 558.129L440.191 560.056L444.419 558.488L439.042 543.994Z" fill="white"/>
<path d="M409.327 553.658C407.643 554.128 406.318 555.199 405.846 556.477L405.434 555L401.091 556.212L406.93 577.128L411.273 575.916L409.195 568.471C410.302 569.245 411.872 569.507 413.674 569.004C417.987 567.8 419.776 564.053 418.473 559.385C417.17 554.717 413.699 552.438 409.327 553.658ZM409.649 557.549C411.717 556.972 413.58 558.171 414.248 560.564C414.916 562.957 413.943 564.948 411.875 565.526C409.748 566.119 407.914 564.912 407.246 562.519C406.578 560.126 407.522 558.143 409.649 557.549Z" fill="white"/>
<path d="M385.359 567.948C386.08 571.307 389.258 574.86 394.716 573.689C399.934 572.569 401.345 568.031 400.54 564.283C399.736 560.534 396.318 557.033 391.1 558.152C387.501 558.925 385.156 561.153 384.868 564.195L389.244 564.417C389.304 563.086 390.266 562.158 391.765 561.837C393.624 561.438 395.103 562.187 395.922 563.956L385.065 566.286C385.106 566.622 385.231 567.348 385.359 567.948ZM396.531 567.088C396.491 568.948 395.604 570.079 394.015 570.42C392.065 570.838 390.861 569.905 390.383 568.407L396.531 567.088Z" fill="white"/>
<path d="M375.806 561.013C372.234 561.596 370.178 564.231 370.607 566.865C371.615 573.04 379.493 569.704 379.888 572.126C379.996 572.792 379.369 573.329 378.37 573.492C377.341 573.66 375.996 573.227 375.375 571.898L372.045 573.964C373.102 576.061 375.922 577.155 379.04 576.646C382.4 576.098 384.163 573.759 383.773 571.368C382.83 565.586 375.009 568.509 374.619 566.117C374.481 565.27 375.174 564.566 376.354 564.373C378.05 564.097 379.423 565.085 380.018 566.448L383.363 564.473C382.201 562.301 379.53 560.406 375.806 561.013Z" fill="white"/>
<path d="M368.001 580.072C366.449 580.271 365.414 581.609 365.605 583.1C365.792 584.56 367.13 585.595 368.681 585.396C370.203 585.202 371.177 583.871 370.99 582.411C370.799 580.92 369.522 579.878 368.001 580.072ZM368.001 562.416L363.528 562.988L365.489 578.322L369.961 577.75L368.001 562.416Z" fill="white"/>
<path d="M351.738 579.679L351.621 578.365C352.53 579.239 353.99 579.725 355.793 579.565C360.07 579.185 362.497 576.012 362.084 571.369C361.671 566.725 358.722 564.031 354.353 564.419C352.673 564.569 351.227 565.283 350.523 566.361L350.392 564.895C350.24 563.184 351.509 561.87 353.617 561.683C355.114 561.55 356.493 562.166 356.818 563.4L360.855 562.394C360.047 559.54 356.91 557.849 353.305 558.169C348.569 558.59 345.67 561.651 346.036 565.775L347.308 580.073L351.738 579.679ZM353.96 568.304C356.037 568.119 357.512 569.466 357.716 571.757C357.919 574.049 356.706 575.635 354.628 575.819C352.52 576.007 351.045 574.66 350.841 572.369C350.638 570.077 351.852 568.491 353.96 568.304Z" fill="white"/>
<path d="M343.526 564.769L339.019 564.908L339.228 571.684C339.327 574.872 338.277 576.654 336.131 576.72C334.506 576.77 333.429 575.668 333.377 573.982L333.102 565.091L328.626 565.229L328.938 575.316C329.043 578.719 331.379 580.856 334.782 580.751C336.898 580.685 338.555 579.683 339.433 578.306L339.496 580.36L344.003 580.22L343.526 564.769Z" fill="white"/>
<path d="M316.159 564.943L311.654 564.752L311.157 576.458L307.632 576.308L307.474 580.047L310.998 580.197L310.956 581.177C310.899 582.526 310.098 583.32 308.872 583.268C308.382 583.248 307.896 583.104 307.354 582.866L306.894 586.469C307.618 586.776 308.44 586.934 309.329 586.972C312.699 587.115 315.299 585.168 315.457 581.46L315.503 580.388L317.923 580.491L318.082 576.752L315.661 576.649L316.159 564.943Z" fill="white"/>
<path d="M298.76 563.583C294.055 563.165 290.334 566.221 289.927 570.804C289.519 575.386 292.642 579.051 297.347 579.47C302.113 579.894 305.773 576.832 306.18 572.249C306.588 567.666 303.526 564.007 298.76 563.583ZM298.42 567.402C300.62 567.598 301.937 569.408 301.72 571.853C301.502 574.297 299.886 575.847 297.687 575.651C295.517 575.458 294.2 573.647 294.418 571.203C294.635 568.759 296.251 567.209 298.42 567.402Z" fill="white"/>
<path d="M277.09 572.384L276.219 576.629C276.623 576.841 277.309 577.029 277.826 577.101C279.648 577.356 281.797 576.386 282.724 574.843L282.356 577.486L286.821 578.109L288.958 562.799L284.492 562.176L283.721 567.704C283.114 572.048 280.989 573.3 278.984 573.02C278.285 572.923 277.573 572.699 277.09 572.384Z" fill="white"/>
<path d="M276.805 561.09L272.377 560.245L271.112 566.874C270.515 570.007 269.097 571.548 266.988 571.145C265.361 570.835 264.513 569.549 264.835 567.862L266.501 559.125L262.103 558.286L260.218 568.168C259.574 571.542 261.39 574.137 264.824 574.792C266.843 575.177 268.667 574.619 269.871 573.382L268.308 581.577L272.737 582.421L276.805 561.09Z" fill="white"/>
<path d="M240.831 568.947L245.174 570.036L246.823 563.461C247.599 560.367 249.125 558.947 251.207 559.469C252.754 559.857 253.49 561.211 253.079 562.848L250.916 571.476L255.29 572.572L257.744 562.784C258.572 559.482 256.878 556.78 253.575 555.952C251.552 555.445 249.684 555.957 248.434 557.035L248.934 555.041L244.59 553.952L240.831 568.947Z" fill="white"/>
<path d="M241.669 553.226L237.391 551.802L234.891 559.31C234.116 561.638 232.604 562.783 230.858 562.202C229.373 561.708 228.83 560.428 229.363 558.827L232.269 550.097L228.049 548.692L225.55 556.2C224.765 558.558 223.262 559.674 221.487 559.083C219.974 558.579 219.43 557.299 219.963 555.698L222.869 546.968L218.62 545.553L215.297 555.535C214.367 558.329 215.755 561.151 218.927 562.207C221.314 563.001 223.496 562.37 224.747 561.235C224.912 563.165 226.028 564.571 228.298 565.326C230.248 565.975 231.887 565.519 233.167 564.49L232.508 566.469L236.786 567.893L241.669 553.226Z" fill="white"/>
<path d="M204.689 556.629C207.749 557.896 211.107 557.163 212.723 554.545L209.377 552.362C208.661 553.692 207.328 554.103 205.968 553.54C204.438 552.906 203.827 551.657 204.413 550.24L204.449 550.155L207.133 550.968C211.418 552.245 214.12 551.571 215.294 548.738C216.28 546.357 215.099 543.677 212.322 542.527C210.735 541.87 208.791 541.994 207.453 542.901L208.204 541.087L204.18 539.42L200.671 547.893C199.004 551.917 200.807 555.021 204.689 556.629ZM210.07 545.08C211.232 545.561 211.597 546.443 211.268 547.236C210.928 548.058 209.926 548.473 208.45 548.028L205.657 547.236L205.704 547.123L205.74 547.038L205.751 547.01C206.472 545.349 208.199 544.305 210.07 545.08Z" fill="white"/>
<path d="M201.363 538.164L197.3 536.209L194.36 542.317C192.977 545.191 191.224 546.288 189.289 545.356C187.824 544.651 187.377 543.177 188.109 541.657L191.966 533.642L187.931 531.7L183.555 540.792C182.078 543.86 183.166 546.834 186.233 548.311C188.141 549.229 190.073 549.104 191.487 548.286L190.596 550.138L194.659 552.094L201.363 538.164Z" fill="white"/>
<path d="M173.823 523.569C172.315 522.685 170.624 522.477 169.378 523.026L170.153 521.703L166.262 519.424L155.286 538.162L159.177 540.441L163.083 533.771C163.297 535.105 164.2 536.416 165.815 537.362C169.679 539.625 173.615 538.306 176.065 534.124C178.514 529.942 177.74 525.863 173.823 523.569ZM171.25 526.505C173.103 527.59 173.536 529.763 172.28 531.907C171.024 534.051 168.917 534.736 167.064 533.651C165.159 532.534 164.752 530.376 166.008 528.233C167.264 526.089 169.345 525.389 171.25 526.505Z" fill="white"/>
<path d="M146.862 516.306C144.954 519.164 144.62 523.919 149.262 527.018C153.701 529.982 157.939 527.832 160.068 524.643C162.196 521.455 162.327 516.563 157.889 513.6C154.827 511.556 151.595 511.427 149.212 513.339L152.102 516.633C153.098 515.749 154.433 515.793 155.709 516.644C157.29 517.7 157.783 519.283 157.084 521.103L147.85 514.938C147.637 515.201 147.202 515.796 146.862 516.306ZM155.262 523.722C153.9 524.988 152.471 525.14 151.119 524.238C149.46 523.131 149.291 521.616 150.032 520.23L155.262 523.722Z" fill="white"/>
<path d="M145.141 504.589C142.238 502.428 138.914 502.784 137.321 504.925C133.585 509.944 141.462 513.283 139.997 515.251C139.594 515.793 138.771 515.716 137.959 515.112C137.123 514.489 136.499 513.221 137.021 511.852L133.22 510.896C132.449 513.114 133.625 515.9 136.16 517.787C138.891 519.819 141.797 519.459 143.244 517.515C146.742 512.816 139.202 509.23 140.648 507.286C141.161 506.598 142.149 506.606 143.108 507.32C144.486 508.346 144.732 510.02 144.166 511.396L147.912 512.425C148.664 510.079 148.168 506.842 145.141 504.589Z" fill="white"/>
<path d="M126.096 512.319C124.872 511.344 123.191 511.534 122.255 512.71C121.338 513.861 121.528 515.542 122.751 516.517C123.951 517.472 125.584 517.244 126.501 516.092C127.438 514.917 127.295 513.274 126.096 512.319ZM138.76 500.015L135.233 497.206L125.601 509.297L129.128 512.106L138.76 500.015Z" fill="white"/>
<path d="M115.074 500.4L115.937 499.402C115.942 500.663 116.608 502.05 117.977 503.233C121.226 506.041 125.194 505.578 128.242 502.051C131.291 498.523 131.174 494.531 127.855 491.663C126.579 490.559 125.061 490.018 123.796 490.262L124.758 489.148C125.881 487.849 127.708 487.846 129.309 489.23C130.446 490.213 130.963 491.632 130.303 492.724L133.834 494.924C135.321 492.358 134.354 488.928 131.616 486.561C128.019 483.452 123.803 483.498 121.096 486.631L111.71 497.492L115.074 500.4ZM124.791 494.082C126.369 495.446 126.428 497.442 124.924 499.183C123.419 500.923 121.436 501.155 119.858 499.791C118.256 498.407 118.198 496.411 119.702 494.67C121.206 492.93 123.19 492.698 124.791 494.082Z" fill="white"/>
<path d="M120.144 484.21L116.899 481.08L112.193 485.96C109.979 488.256 107.971 488.748 106.425 487.258C105.255 486.129 105.292 484.589 106.463 483.374L112.637 476.971L109.414 473.863L102.409 481.127C100.046 483.578 100.147 486.743 102.597 489.106C104.121 490.575 105.995 491.062 107.594 490.729L106.168 492.208L109.413 495.338L120.144 484.21Z" fill="white"/>
<path d="M101.721 465.574L98.7115 462.217L89.9874 470.038L87.6328 467.412L84.8466 469.909L87.2012 472.536L86.4704 473.191C85.4655 474.092 84.337 474.074 83.518 473.16C83.1904 472.795 82.9542 472.348 82.7455 471.793L79.8459 473.981C80.1317 474.713 80.5932 475.412 81.187 476.074C83.4392 478.586 86.6482 479.087 89.4116 476.61L90.211 475.893L91.8285 477.697L94.6147 475.199L92.9972 473.395L101.721 465.574Z" fill="white"/>
<path d="M90.5019 452.146C87.5187 448.484 82.7332 447.951 79.1661 450.857C75.599 453.763 75.1528 458.557 78.1361 462.22C81.1581 465.929 85.9049 466.414 89.472 463.508C93.039 460.603 93.524 455.856 90.5019 452.146ZM87.5294 454.568C88.9242 456.28 88.5461 458.487 86.6437 460.037C84.7412 461.586 82.5035 461.51 81.1087 459.798C79.7333 458.11 80.1113 455.903 82.0138 454.353C83.9162 452.803 86.154 452.879 87.5294 454.568Z" fill="white"/>
<path d="M69.1165 442.887L65.4738 445.234C65.6056 445.671 65.9507 446.293 66.2605 446.712C67.3539 448.193 69.55 449.049 71.3014 448.633L69.155 450.218L71.8338 453.845L84.2683 444.66L81.5894 441.033L77.0992 444.35C73.5712 446.956 71.1895 446.313 69.9868 444.685C69.5676 444.117 69.229 443.452 69.1165 442.887Z" fill="white"/>
<path d="M76.8998 434.661L74.41 430.902L68.7842 434.628C66.1248 436.389 64.0319 436.451 62.8463 434.661C61.9317 433.28 62.2595 431.775 63.6915 430.827L71.1073 425.915L68.6345 422.182L60.2469 427.737C57.3829 429.634 56.7951 432.746 58.7259 435.661C59.8607 437.374 61.5338 438.289 63.2607 438.286L56.3052 442.893L58.7949 446.652L76.8998 434.661Z" fill="white"/>
<path d="M46.1774 414.473L48.4266 418.346L54.2881 414.941C57.0465 413.339 59.1283 413.442 60.2067 415.299C61.0077 416.678 60.5502 418.149 59.0915 418.997L51.3999 423.464L53.6646 427.363L62.3905 422.295C65.3345 420.585 66.0887 417.486 64.3787 414.542C63.3311 412.739 61.6616 411.758 60.017 411.613L61.794 410.581L59.5448 406.709L46.1774 414.473Z" fill="white"/>
<path d="M57.9604 404.091L55.99 400.035L48.8722 403.494C46.6652 404.566 44.789 404.284 43.9848 402.629C43.3012 401.222 43.8371 399.938 45.3544 399.201L53.6309 395.18L51.6873 391.18L44.5696 394.638C42.3349 395.723 40.4863 395.428 39.6687 393.745C38.9717 392.311 39.5076 391.027 41.0249 390.29L49.3014 386.269L47.3444 382.241L37.8817 386.838C35.2332 388.125 34.1843 391.09 35.6454 394.097C36.7445 396.359 38.7208 397.479 40.407 397.581C39.142 399.048 38.9159 400.829 39.9614 402.981C40.8595 404.829 42.3313 405.683 43.9615 405.879L42.0855 406.791L44.0559 410.846L57.9604 404.091Z" fill="white"/>
<path d="M29.655 380.025C30.8882 383.099 33.7606 384.988 36.7616 384.313L35.9833 380.395C34.5313 380.812 33.3061 380.147 32.758 378.78C32.1414 377.243 32.6072 375.933 34.0306 375.362L34.116 375.327L35.4113 377.815C37.4939 381.772 39.8647 383.233 42.7115 382.091C45.1028 381.132 46.1938 378.414 45.0748 375.625C44.4353 374.03 42.9874 372.728 41.4037 372.404L43.2256 371.674L41.6042 367.631L33.0924 371.045C29.05 372.667 28.0907 376.125 29.655 380.025ZM41.6746 375.799C42.1428 376.966 41.7677 377.843 40.9706 378.163C40.145 378.494 39.1479 378.068 38.4346 376.702L37.0482 374.151L37.162 374.106L37.2474 374.071L37.2759 374.06C38.9669 373.415 40.921 373.92 41.6746 375.799Z" fill="white"/>
<path d="M40.7096 365.239L39.2533 360.971L32.838 363.161C29.8191 364.191 27.8079 363.711 27.1144 361.679C26.5893 360.14 27.3265 358.787 28.923 358.242L37.3412 355.369L35.8948 351.131L26.3445 354.39C23.1224 355.49 21.7655 358.351 22.8652 361.573C23.5488 363.576 24.9935 364.866 26.568 365.301L24.6231 365.965L26.0794 370.232L40.7096 365.239Z" fill="white"/>
<path d="M31.8288 335.448C31.4037 333.752 30.3687 332.398 29.1037 331.893L30.5913 331.521L29.4948 327.147L8.43085 332.428L9.52734 336.802L17.0247 334.922C16.222 336.009 15.918 337.571 16.373 339.386C17.4621 343.729 21.1606 345.617 25.8613 344.438C30.562 343.259 32.9328 339.851 31.8288 335.448ZM27.9309 335.666C28.453 337.748 27.2045 339.579 24.7946 340.184C22.3848 340.788 20.4202 339.762 19.898 337.68C19.361 335.538 20.617 333.737 23.0268 333.132C25.4367 332.528 27.3938 333.524 27.9309 335.666Z" fill="white"/>
<path d="M18.0247 310.5C14.6478 311.13 11.011 314.212 12.036 319.7C13.0159 324.946 17.5142 326.477 21.283 325.773C25.0519 325.069 28.6436 321.746 27.6637 316.5C26.9879 312.882 24.8228 310.478 21.7895 310.108L21.4511 314.478C22.7794 314.573 23.6812 315.559 23.9628 317.066C24.3119 318.936 23.5233 320.393 21.7328 321.165L19.6942 310.25C19.3569 310.282 18.6277 310.387 18.0247 310.5ZM18.5859 321.69C16.7281 321.6 15.6209 320.684 15.3224 319.086C14.9564 317.126 15.9219 315.947 17.4314 315.509L18.5859 321.69Z" fill="white"/>
<path d="M25.2156 301.237C24.7291 297.651 22.1501 295.524 19.5058 295.883C13.3055 296.724 16.4289 304.689 13.9974 305.019C13.3287 305.109 12.8084 304.468 12.6723 303.465C12.5321 302.432 13.0014 301.099 14.3459 300.514L12.37 297.13C10.2461 298.13 9.0769 300.919 9.5016 304.05C9.95928 307.424 12.2498 309.249 14.6509 308.923C20.4561 308.135 17.7443 300.239 20.1454 299.913C20.9964 299.798 21.6811 300.51 21.8419 301.695C22.0728 303.397 21.0483 304.743 19.6693 305.302L21.5539 308.698C23.7566 307.595 25.7228 304.976 25.2156 301.237Z" fill="white"/>
<path d="M6.35438 292.859C6.19783 291.303 4.88791 290.232 3.39252 290.383C1.92765 290.53 0.857152 291.84 1.0137 293.396C1.16719 294.922 2.47097 295.932 3.93584 295.784C5.43123 295.634 6.50786 294.385 6.35438 292.859ZM24.0043 293.334L23.5531 288.848L8.17195 290.395L8.62318 294.881L24.0043 293.334Z" fill="white"/>
<path d="M7.20408 277.174L8.52047 277.093C7.62254 277.978 7.09731 279.424 7.20895 281.23C7.47386 285.516 10.5793 288.029 15.2326 287.741C19.8859 287.453 22.6583 284.578 22.3877 280.2C22.2836 278.516 21.6092 277.052 20.5498 276.318L22.0192 276.228C23.7336 276.122 25.0127 277.426 25.1433 279.538C25.236 281.038 24.5826 282.4 23.3407 282.692L24.2371 286.754C27.1114 286.023 28.8871 282.933 28.6638 279.32C28.3705 274.575 25.3898 271.594 21.2569 271.85L6.92971 272.735L7.20408 277.174ZM18.5156 279.702C18.6442 281.783 17.258 283.221 14.962 283.363C12.666 283.505 11.1132 282.249 10.9846 280.167C10.854 278.055 12.2402 276.617 14.5362 276.475C16.8323 276.333 18.385 277.589 18.5156 279.702Z" fill="white"/>
<path d="M21.708 266.884V262.249H15.0942C11.9818 262.249 10.276 261.114 10.276 258.907C10.276 257.236 11.3833 256.164 13.0292 256.164H21.708V251.561H11.8621C8.54022 251.561 6.3855 253.894 6.3855 257.394C6.3855 259.569 7.31323 261.303 8.63 262.249H6.62491V266.884H21.708Z" fill="white"/>
<path d="M22.7778 241.757L23.0906 237.259L11.4021 236.446L11.6468 232.927L7.91386 232.668L7.66912 236.187L6.68998 236.118C5.34365 236.025 4.5707 235.202 4.65583 233.978C4.68988 233.489 4.84633 233.008 5.09882 232.472L1.50951 231.915C1.18305 232.63 1.0032 233.448 0.941481 234.335C0.707382 237.701 2.58295 240.352 6.28534 240.61L7.35628 240.684L7.18815 243.102L10.9211 243.361L11.0893 240.944L22.7778 241.757Z" fill="white"/>
<path d="M24.5524 224.579C25.0973 219.887 22.1423 216.085 17.5722 215.555C13.0021 215.024 9.25433 218.047 8.70937 222.739C8.15733 227.492 11.1195 231.232 15.6896 231.763C20.2597 232.294 24.0003 229.332 24.5524 224.579ZM20.744 224.137C20.4892 226.33 18.6436 227.598 16.2062 227.315C13.7688 227.032 12.263 225.375 12.5178 223.181C12.769 221.018 14.6146 219.75 17.052 220.033C19.4894 220.316 20.9952 221.973 20.744 224.137Z" fill="white"/>
<path d="M16.3773 202.194L12.1571 201.209C11.9351 201.607 11.7281 202.288 11.6422 202.802C11.339 204.617 12.2508 206.791 13.7683 207.76L11.1363 207.32L10.3934 211.767L25.6409 214.314L26.3838 209.867L20.8777 208.947C16.5515 208.225 15.3573 206.066 15.6908 204.069C15.807 203.374 16.0493 202.668 16.3773 202.194Z" fill="white"/>
<path d="M27.6166 202.422L28.5794 198.017L21.9872 196.576C18.8709 195.895 17.3687 194.437 17.8272 192.339C18.1809 190.721 19.4888 189.908 21.1668 190.275L29.8566 192.174L30.8129 187.799L20.9844 185.651C17.6284 184.918 14.9863 186.663 14.2396 190.079C13.8008 192.087 14.3095 193.925 15.5148 195.162L7.36442 193.38L6.40161 197.785L27.6166 202.422Z" fill="white"/>
<path d="M20.8402 165.843L19.6198 170.152L26.1418 171.999C29.211 172.868 30.5838 174.437 29.9987 176.502C29.5641 178.037 28.1879 178.731 26.5648 178.271L18.0066 175.847L16.7778 180.185L26.487 182.935C29.7628 183.863 32.5145 182.252 33.4423 178.976C34.0107 176.969 33.5556 175.087 32.5162 173.804L34.4935 174.364L35.7138 170.056L20.8402 165.843Z" fill="white"/>
<path d="M36.1709 168.032L37.7072 163.793L30.2673 161.096C27.9604 160.26 26.8555 158.718 27.4826 156.988C28.0156 155.517 29.3096 155.007 30.8956 155.582L39.5466 158.717L41.062 154.536L33.6221 151.84C31.2864 150.993 30.2103 149.461 30.8479 147.702C31.3913 146.203 32.6853 145.693 34.2713 146.268L42.9223 149.403L44.4482 145.193L34.5572 141.608C31.7889 140.605 28.9313 141.918 27.7921 145.061C26.9352 147.426 27.5088 149.624 28.6108 150.904C26.6769 151.019 25.2421 152.098 24.4269 154.347C23.7266 156.279 24.1398 157.929 25.1344 159.236L23.1735 158.525L21.6372 162.764L36.1709 168.032Z" fill="white"/>
<path d="M33.7229 130.87C32.3758 133.897 33.0216 137.273 35.5962 138.956L37.8652 135.669C36.5546 134.917 36.1785 133.575 36.7772 132.23C37.4508 130.717 38.7155 130.138 40.1166 130.762L40.2006 130.799L39.3178 133.461C37.9295 137.712 38.5321 140.431 41.3342 141.678C43.688 142.726 46.3981 141.616 47.6205 138.869C48.319 137.3 48.2453 135.354 47.3741 133.992L49.1675 134.791L50.9387 130.812L42.5603 127.082C38.5812 125.311 35.4317 127.031 33.7229 130.87ZM45.1273 136.551C44.6159 137.7 43.725 138.042 42.9404 137.693C42.1278 137.331 41.739 136.319 42.2226 134.855L43.0868 132.084L43.1989 132.134L43.283 132.171L43.311 132.184C44.9518 132.948 45.9505 134.702 45.1273 136.551Z" fill="white"/>
<path d="M52.3741 127.733L54.4342 123.723L48.4046 120.626C45.5671 119.168 44.5165 117.387 45.4975 115.477C46.2403 114.031 47.7262 113.622 49.2268 114.393L57.139 118.457L59.1851 114.474L50.2089 109.863C47.1804 108.307 44.1789 109.317 42.6234 112.346C41.6564 114.228 41.7314 116.163 42.5114 117.598L40.6834 116.66L38.6233 120.67L52.3741 127.733Z" fill="white"/>
<path d="M67.2165 101.263C68.1387 99.7775 68.3906 98.0926 67.8732 96.8326L69.1761 97.6416L71.5544 93.8111L53.1055 82.3561L50.7271 86.1866L57.2937 90.2638C55.9547 90.4433 54.621 91.3121 53.6341 92.9016C51.2719 96.7061 52.4898 100.676 56.607 103.232C60.7241 105.788 64.822 105.119 67.2165 101.263ZM64.3476 98.615C63.215 100.439 61.0313 100.816 58.9206 99.5056C56.8099 98.195 56.1794 96.0706 57.312 94.2465C58.4769 92.3704 60.6444 92.0193 62.7551 93.3299C64.8658 94.6404 65.5125 96.7388 64.3476 98.615Z" fill="white"/>
<path d="M75.3285 74.1516C72.5212 72.1716 67.7762 71.715 64.5588 76.2768C61.4827 80.6382 63.5229 84.9297 66.6561 87.1395C69.7892 89.3493 74.6756 89.6053 77.7517 85.244C79.8731 82.2362 80.0856 79.0081 78.2347 76.5767L74.8677 79.3815C75.726 80.3997 75.6484 81.7337 74.7645 82.987C73.6684 84.541 72.0737 84.9927 70.2722 84.2475L76.6717 75.174C76.4137 74.9545 75.8298 74.5051 75.3285 74.1516ZM67.7008 82.3589C66.4694 80.9649 66.3539 79.5322 67.2908 78.2038C68.4399 76.5746 69.9581 76.4443 71.3248 77.2205L67.7008 82.3589Z" fill="white"/>
<path d="M87.4005 72.2676C89.6349 69.4204 89.3642 66.0888 87.265 64.4414C82.3426 60.5785 78.8036 68.3673 76.8732 66.8525C76.3424 66.4359 76.4401 65.6158 77.065 64.8196C77.7088 63.9992 78.9918 63.4075 80.348 63.9649L81.4 60.1898C79.2031 59.3624 76.3871 60.4667 74.4367 62.952C72.3348 65.6303 72.6208 68.545 74.527 70.0409C79.1357 73.6576 82.9127 66.2115 84.8189 67.7074C85.4945 68.2376 85.4607 69.2247 84.7222 70.1658C83.6618 71.517 81.9822 71.7196 80.6209 71.1192L79.4965 74.8375C81.8226 75.6492 85.0714 75.2355 87.4005 72.2676Z" fill="white"/>
<path d="M79.7309 53.5309C80.7364 52.3326 80.589 50.6473 79.4377 49.6812C78.3099 48.7349 76.6246 48.8823 75.6191 50.0806C74.6333 51.2553 74.8201 52.8936 75.9479 53.84C77.0992 54.8061 78.7451 54.7057 79.7309 53.5309ZM91.7077 66.504L94.606 63.0501L82.7641 53.1132L79.8658 56.5671L91.7077 66.504Z" fill="white"/>
<path d="M91.7706 42.9347L92.7462 43.8222C91.4856 43.7949 90.0824 44.4258 88.8646 45.7644C85.975 48.9408 86.3368 52.9188 89.7854 56.0561C93.2341 59.1934 97.2285 59.1783 100.18 55.9338C101.315 54.686 101.896 53.1821 101.683 51.9111L102.772 52.9018C104.043 54.0576 103.999 55.8836 102.575 57.4491C101.564 58.5608 100.132 59.0411 99.0568 58.3536L96.7675 61.8273C99.2944 63.3797 102.749 62.4999 105.184 59.8227C108.383 56.306 108.445 52.0908 105.382 49.3044L94.7635 39.6448L91.7706 42.9347ZM97.8393 52.8093C96.4358 54.3521 94.4386 54.3597 92.737 52.8117C91.0353 51.2637 90.8545 49.2747 92.258 47.7318C93.6821 46.1663 95.6794 46.1588 97.381 47.7068C99.0826 49.2548 99.2635 51.2438 97.8393 52.8093Z" fill="white"/>
<path d="M108.684 47.4552L111.907 44.3019L107.166 39.4568C104.935 37.1767 104.502 35.1549 106.037 33.6533C107.199 32.5164 108.738 32.5983 109.918 33.804L116.138 40.1619L119.339 37.0301L112.282 29.8172C109.901 27.3837 106.734 27.3926 104.3 29.7736C102.788 31.2537 102.247 33.1131 102.533 34.7213L101.096 33.2524L97.873 36.4057L108.684 47.4552Z" fill="white"/>
<path d="M126.761 30.4372L130.194 27.5139L122.597 18.5935L125.283 16.3066L122.856 13.4576L120.171 15.7446L119.535 14.9974C118.66 13.9699 118.706 12.8422 119.64 12.0468C120.014 11.7286 120.467 11.5038 121.027 11.3093L118.914 8.35492C118.174 8.62203 117.464 9.06557 116.787 9.64228C114.218 11.8298 113.636 15.0251 116.042 17.8506L116.738 18.6679L114.893 20.239L117.32 23.0879L119.164 21.5169L126.761 30.4372Z" fill="white"/>
<path d="M140.684 19.3316C144.421 16.4427 145.075 11.6723 142.261 8.03228C139.448 4.39228 134.666 3.82396 130.929 6.71288C127.143 9.63931 126.538 14.3722 129.352 18.0122C132.165 21.6522 136.898 22.258 140.684 19.3316ZM138.339 16.2982C136.592 17.6489 134.395 17.2147 132.894 15.2733C131.394 13.332 131.527 11.0969 133.274 9.74622C134.997 8.41432 137.193 8.84855 138.694 10.7899C140.195 12.7312 140.062 14.9663 138.339 16.2982Z" fill="white"/>
<path d="M150.163 -1.63452L147.909 -5.33605C147.47 -5.21549 146.839 -4.88638 146.412 -4.58741C144.904 -3.53221 143.992 -1.35877 144.363 0.402712L142.833 -1.78355L139.139 0.801683L148.003 13.4669L151.697 10.8817L148.496 6.30814C145.981 2.71462 146.685 0.350192 148.344 -0.810526C148.922 -1.21502 149.595 -1.53658 150.163 -1.63452Z" fill="white"/>
<path d="M158.679 5.97797L162.501 3.58555L158.92 -2.13405C157.228 -4.83787 157.22 -6.93166 159.04 -8.07091C160.444 -8.94975 161.939 -8.58344 162.851 -7.12754L167.571 0.411945L171.366 -1.96419L166.028 -10.4916C164.205 -13.4034 161.11 -14.0709 158.146 -12.2156C156.404 -11.1252 155.446 -9.47611 155.405 -7.74967L150.978 -14.8212L147.156 -12.4288L158.679 5.97797Z" fill="white"/>
<path d="M493.998 5.39021C495.456 6.35562 497.133 6.65683 498.407 6.1766L497.56 7.45519L501.319 9.94494L513.311 -8.15991L509.552 -10.6497L505.284 -4.20555C505.144 -5.54923 504.314 -6.90785 502.754 -7.94101C499.021 -10.4138 495.017 -9.31289 492.341 -5.27254C489.665 -1.23219 490.214 2.88353 493.998 5.39021ZM496.729 2.60022C494.939 1.41463 494.626 -0.779228 495.998 -2.85054C497.37 -4.92186 499.512 -5.48976 501.302 -4.30417C503.143 -3.08471 503.431 -0.907787 502.059 1.16353C500.687 3.23485 498.57 3.81969 496.729 2.60022Z" fill="white"/>
<path d="M519.268 13.0965C521.319 10.3407 521.897 5.60893 517.419 2.27588C513.138 -0.910666 508.795 1.01916 506.506 4.09477C504.217 7.17037 503.836 12.0487 508.117 15.2352C511.07 17.4328 514.291 17.7278 516.769 15.9397L514.052 12.5021C513.012 13.334 511.68 13.2223 510.45 12.3067C508.924 11.1712 508.514 9.56551 509.305 7.78362L518.212 14.4131C518.438 14.1608 518.902 13.5886 519.268 13.0965ZM511.258 5.26135C512.683 4.06605 514.119 3.98719 515.423 4.9578C517.022 6.14818 517.113 7.66919 516.302 9.01561L511.258 5.26135Z" fill="white"/>
<path d="M520.939 25.2655C523.729 27.5717 527.066 27.386 528.767 25.3295C532.754 20.5072 525.058 16.7707 526.621 14.8796C527.051 14.3596 527.869 14.4782 528.649 15.1231C529.452 15.7877 530.011 17.0854 529.419 18.4269L533.166 19.5748C534.049 17.3997 533.017 14.5565 530.583 12.5434C527.959 10.3739 525.038 10.5855 523.494 12.4529C519.761 16.9679 527.108 20.9335 525.564 22.801C525.017 23.4628 524.031 23.4038 523.109 22.6416C521.785 21.5471 521.625 19.8629 522.26 18.5174L518.572 17.2985C517.701 19.6032 518.032 22.8615 520.939 25.2655Z" fill="white"/>
<path d="M539.847 18.0446C541.019 19.0803 542.708 18.9759 543.703 17.8496C544.677 16.7462 544.573 15.0578 543.401 14.022C542.251 13.0066 540.609 13.1517 539.634 14.255C538.639 15.3814 538.697 17.0292 539.847 18.0446ZM526.573 29.6873L529.952 32.6725L540.187 21.0875L536.808 18.1022L526.573 29.6873Z" fill="white"/>
<path d="M551.613 31.7707L550.698 32.7201C550.761 31.4608 550.172 30.0398 548.869 28.7837C545.778 25.8029 541.791 26.0489 538.555 29.4049C535.319 32.7609 535.218 36.7541 538.375 39.7987C539.589 40.9697 541.076 41.5934 542.352 41.4184L541.33 42.4782C540.138 43.7146 538.314 43.6176 536.791 42.1485C535.709 41.1052 535.27 39.6598 535.989 38.6056L532.583 36.2162C530.958 38.697 531.737 42.1752 534.342 44.6876C537.764 47.9877 541.976 48.1714 544.85 45.1908L554.814 34.8579L551.613 31.7707ZM541.566 37.5498C540.065 36.102 540.115 34.1054 541.712 32.4495C543.309 30.7936 545.302 30.6706 546.804 32.1184C548.327 33.5874 548.277 35.584 546.68 37.2399C545.083 38.8959 543.09 39.0188 541.566 37.5498Z" fill="white"/>
<path d="M545.279 47.1998L548.35 50.5017L553.314 45.8859C555.65 43.7137 557.682 43.3318 559.144 44.9042C560.251 46.0946 560.13 47.6312 558.895 48.7799L552.381 54.8369L555.43 58.1164L562.82 51.2448C565.313 48.9264 565.385 45.7604 563.067 43.2671C561.626 41.7172 559.781 41.1293 558.166 41.3744L559.671 39.9751L556.6 36.6731L545.279 47.1998Z" fill="white"/>
<path d="M563.104 67.2375L565.926 70.7539L575.064 63.4201L577.271 66.171L580.19 63.8289L577.982 61.078L578.747 60.4636C579.8 59.6189 580.926 59.6986 581.694 60.6554C582.001 61.0381 582.212 61.4977 582.39 62.0626L585.405 60.0364C585.16 59.2895 584.737 58.5669 584.18 57.8732C582.068 55.2419 578.891 54.5667 575.997 56.8896L575.16 57.5616L573.643 55.6718L570.725 58.014L572.241 59.9038L563.104 67.2375Z" fill="white"/>
<path d="M572.715 80.0425C575.507 83.8521 580.26 84.6281 583.97 81.9081C587.681 79.1881 588.371 74.4228 585.579 70.6132C582.75 66.7541 578.034 66.0276 574.323 68.7476C570.613 71.4676 569.886 76.1834 572.715 80.0425ZM575.807 77.7758C574.502 75.9947 574.992 73.81 576.971 72.3593C578.95 70.9086 581.181 71.0987 582.486 72.8798C583.774 74.6362 583.284 76.821 581.305 78.2717C579.326 79.7223 577.095 79.5322 575.807 77.7758Z" fill="white"/>
<path d="M594.49 91.6955L598.256 89.5513C598.149 89.1082 597.838 88.4681 597.552 88.0323C596.541 86.4943 594.395 85.5187 592.624 85.8387L594.854 84.3733L592.378 80.6051L579.459 89.0941L581.935 92.8623L586.6 89.7968C590.266 87.3882 592.608 88.161 593.72 89.8528C594.107 90.4424 594.409 91.125 594.49 91.6955Z" fill="white"/>
<path d="M585.663 98.4661L587.957 102.348L593.766 98.9161C596.513 97.2936 598.606 97.3395 599.698 99.1881C600.541 100.614 600.136 102.1 598.657 102.974L590.999 107.498L593.276 111.353L601.938 106.236C604.896 104.489 605.643 101.412 603.865 98.4012C602.819 96.6318 601.195 95.6318 599.471 95.5463L606.654 91.303L604.36 87.421L585.663 98.4661Z" fill="white"/>
<path d="M615.315 120.15L613.269 116.167L607.239 119.264C604.402 120.722 602.328 120.511 601.347 118.601C600.618 117.182 601.151 115.736 602.652 114.965L610.564 110.901L608.504 106.891L599.528 111.501C596.499 113.057 595.586 116.112 597.142 119.141C598.095 120.996 599.711 122.062 601.346 122.291L599.518 123.23L601.564 127.214L615.315 120.15Z" fill="white"/>
<path d="M603.169 130.151L604.926 134.303L612.214 131.221C614.474 130.265 616.333 130.644 617.05 132.339C617.659 133.78 617.057 135.033 615.503 135.691L607.029 139.275L608.761 143.371L616.049 140.289C618.338 139.321 620.168 139.712 620.897 141.435C621.518 142.904 620.916 144.158 619.363 144.815L610.888 148.4L612.632 152.524L622.322 148.426C625.034 147.279 626.236 144.372 624.933 141.293C623.954 138.977 622.038 137.756 620.36 137.566C621.699 136.167 622.018 134.401 621.086 132.197C620.285 130.304 618.86 129.375 617.242 129.094L619.163 128.281L617.407 124.129L603.169 130.151Z" fill="white"/>
<path d="M630.287 155.871C629.217 152.736 626.448 150.7 623.416 151.216L623.987 155.169C625.459 154.829 626.647 155.558 627.123 156.951C627.658 158.519 627.124 159.803 625.673 160.298L625.586 160.328L624.423 157.775C622.551 153.715 620.26 152.131 617.357 153.122C614.919 153.954 613.687 156.611 614.657 159.455C615.212 161.081 616.59 162.458 618.154 162.864L616.296 163.498L617.703 167.62L626.383 164.658C630.505 163.251 631.644 159.848 630.287 155.871ZM618.062 159.46C617.656 158.27 618.077 157.413 618.889 157.136C619.731 156.849 620.705 157.327 621.345 158.729L622.596 161.348L622.479 161.388L622.392 161.418L622.363 161.428C620.641 161.983 618.716 161.376 618.062 159.46Z" fill="white"/>
<path d="M618.831 171.158L620.043 175.501L626.572 173.679C629.644 172.821 631.625 173.414 632.202 175.482C632.64 177.048 631.827 178.358 630.202 178.811L621.635 181.203L622.839 185.516L632.558 182.803C635.837 181.888 637.354 179.108 636.439 175.828C635.87 173.79 634.5 172.421 632.953 171.897L634.932 171.345L633.72 167.002L618.831 171.158Z" fill="white"/>
<path d="M626.098 201.686C626.426 203.403 627.382 204.813 628.616 205.39L627.109 205.677L627.954 210.106L649.285 206.037L648.441 201.608L640.848 203.057C641.711 202.018 642.104 200.475 641.754 198.637C640.915 194.238 637.33 192.143 632.57 193.051C627.809 193.959 625.248 197.227 626.098 201.686ZM630.002 201.69C629.6 199.581 630.951 197.825 633.391 197.359C635.832 196.894 637.735 198.03 638.137 200.139C638.551 202.308 637.194 204.035 634.753 204.5C632.313 204.966 630.416 203.86 630.002 201.69Z" fill="white"/>
<path d="M638.396 226.566C641.801 226.117 645.598 223.235 644.869 217.7C644.172 212.409 639.762 210.639 635.961 211.14C632.16 211.64 628.395 214.766 629.092 220.057C629.573 223.706 631.606 226.223 634.615 226.755L635.187 222.41C633.866 222.244 633.018 221.211 632.818 219.69C632.57 217.805 633.435 216.391 635.265 215.717L636.715 226.725C637.054 226.712 637.787 226.646 638.396 226.566ZM638.435 215.361C640.285 215.551 641.342 216.525 641.554 218.137C641.815 220.114 640.787 221.239 639.257 221.595L638.435 215.361Z" fill="white"/>
<path d="M630.736 235.589C631.029 239.197 633.49 241.459 636.15 241.243C642.386 240.737 639.696 232.616 642.142 232.417C642.814 232.363 643.299 233.031 643.381 234.04C643.466 235.079 642.925 236.385 641.551 236.896L643.342 240.382C645.517 239.498 646.835 236.775 646.579 233.626C646.304 230.233 644.115 228.287 641.699 228.483C635.86 228.957 638.143 236.988 635.728 237.185C634.872 237.254 634.227 236.506 634.13 235.314C633.991 233.602 635.086 232.313 636.493 231.829L634.794 228.336C632.535 229.32 630.431 231.829 630.736 235.589Z" fill="white"/>
<path d="M649.066 243.803C649.145 245.365 650.399 246.5 651.9 246.424C653.371 246.35 654.506 245.096 654.427 243.533C654.35 242.002 653.099 240.928 651.628 241.002C650.127 241.078 648.989 242.271 649.066 243.803ZM631.462 242.445L631.688 246.948L647.128 246.173L646.902 241.669L631.462 242.445Z" fill="white"/>
<path d="M647.439 260.846L646.12 260.856C647.064 260.02 647.667 258.605 647.653 256.795C647.619 252.501 644.654 249.825 639.992 249.861C635.33 249.897 632.407 252.619 632.44 257.005C632.453 258.691 633.048 260.19 634.066 260.979L632.594 260.991C630.876 261.004 629.669 259.633 629.653 257.517C629.642 256.014 630.367 254.689 631.623 254.465L630.947 250.36C628.038 250.935 626.098 253.925 626.126 257.544C626.163 262.298 628.978 265.436 633.119 265.404L647.473 265.293L647.439 260.846ZM636.28 257.711C636.264 255.625 637.726 254.265 640.026 254.247C642.326 254.229 643.809 255.567 643.825 257.653C643.841 259.769 642.38 261.13 640.079 261.148C637.779 261.166 636.296 259.827 636.28 257.711Z" fill="white"/>
</g>
</svg>
