<svg width="291" height="291" viewBox="0 0 291 291" fill="none" xmlns="http://www.w3.org/2000/svg">
<circle cx="145.908" cy="145.998" r="145" fill="white"/>
<circle cx="145.908" cy="145.998" r="124" fill="#2C2C2C"/>
<path d="M236.387 156.522C233.036 213.163 200.545 243.998 147.236 243.998C93.9269 243.998 55.0684 211.823 55.0684 156.522" stroke="white" stroke-width="17"/>
<path d="M103.527 71.9976L111.385 96.182L136.814 96.182L116.242 111.129L124.1 135.313L103.527 120.366L82.955 135.313L90.813 111.129L70.2405 96.182L95.6695 96.182L103.527 71.9976Z" fill="white"/>
<path d="M191.289 71.9976L199.147 96.182L224.576 96.182L204.003 111.129L211.861 135.313L191.289 120.366L170.716 135.313L178.574 111.129L158.002 96.182L183.431 96.182L191.289 71.9976Z" fill="white"/>
</svg>
