<svg width="110" height="12" viewBox="0 0 110 12" fill="none" xmlns="http://www.w3.org/2000/svg">
<path fill-rule="evenodd" clip-rule="evenodd" d="M0.956145 1.80951C1.0613 0.987789 1.81269 0.406896 2.63442 0.512053C6.57304 1.01608 10.2401 1.03869 14.4045 1.06436C14.5457 1.06523 14.6875 1.0661 14.8298 1.067C21.5503 1.10931 28.2672 1.20586 34.9772 1.30289L35.1975 1.30608C41.8359 1.40208 48.4674 1.49799 55.1006 1.5421C62.6655 1.5924 70.1899 1.52584 77.728 1.45916C83.4329 1.40869 89.1456 1.35816 94.8897 1.35816C94.9245 1.35816 95.0204 1.35681 95.1687 1.35474C96.1144 1.34149 99.1909 1.29841 102.133 1.3835C103.83 1.43259 105.549 1.52555 106.83 1.70167C107.449 1.78678 108.077 1.90519 108.566 2.09356C108.79 2.17999 109.158 2.34409 109.459 2.66044C109.624 2.83463 109.808 3.09553 109.895 3.4489C109.986 3.81862 109.944 4.17734 109.824 4.48101C109.641 4.94519 109.315 5.24893 109.064 5.43316C108.803 5.62368 108.516 5.76377 108.252 5.87044C107.723 6.08365 107.08 6.24298 106.416 6.36904C105.073 6.62374 103.371 6.79094 101.682 6.9055C99.1761 7.07548 96.5158 7.13851 94.9532 7.17553C94.4235 7.18809 94.0199 7.19765 93.7912 7.20738C92.0276 7.28242 90.2662 7.35459 88.5068 7.42668C80.1903 7.76745 71.9204 8.1063 63.6864 8.73692C63.534 8.7486 63.2573 8.76631 62.8835 8.79023C61.4608 8.88129 58.6315 9.06237 55.891 9.34355C55.8657 9.34614 55.8405 9.34874 55.8153 9.35135C55.9174 9.56402 55.9708 9.804 55.9613 10.0562C55.9303 10.884 55.234 11.5299 54.4061 11.4989C54.3373 11.4963 54.1702 11.4944 53.9397 11.4917C53.3156 11.4845 52.2264 11.472 51.3625 11.4264C50.7274 11.393 50.0507 11.3375 49.5048 11.2349C49.2433 11.1858 48.9204 11.1099 48.626 10.9767C48.4792 10.9102 48.2644 10.7966 48.0619 10.6059C47.8507 10.407 47.5874 10.0579 47.5359 9.55514C47.4568 8.78307 47.8971 8.26376 48.1603 8.03118C48.4284 7.79433 48.7368 7.64181 48.9739 7.54172C49.4663 7.33383 50.0968 7.17135 50.7474 7.03707C52.0755 6.76298 53.8323 6.53903 55.5848 6.35921C58.4067 6.06968 61.3797 5.87988 62.7595 5.79179C63.0941 5.77043 63.335 5.75505 63.4573 5.74568C71.7495 5.1106 80.0831 4.76921 88.4012 4.42845C88.8751 4.40903 89.349 4.38962 89.8228 4.37015C85.8251 4.38802 81.8176 4.42334 77.8063 4.45868C70.2309 4.52544 62.6422 4.59231 55.0807 4.54203C48.4357 4.49785 41.7941 4.40179 35.1594 4.30584L34.9338 4.30258C28.2221 4.20552 21.5172 4.10916 14.8109 4.06694C14.6481 4.06591 14.4858 4.06492 14.3239 4.06393C10.2073 4.03879 6.37647 4.01539 2.25361 3.48779C1.43188 3.38263 0.850987 2.63124 0.956145 1.80951ZM107.517 4.90615C107.517 4.9063 107.511 4.90384 107.501 4.89837C107.512 4.90327 107.518 4.906 107.517 4.90615Z" fill="url(#paint0_linear_656_11448)"/>
<defs>
<linearGradient id="paint0_linear_656_11448" x1="65.4157" y1="13.1005" x2="65.4083" y2="4.36385" gradientUnits="userSpaceOnUse">
<stop stop-color="#EEF2F7"/>
<stop offset="1" stop-color="#E5ECF0"/>
</linearGradient>
</defs>
</svg>
